<?xml version="1.0" standalone="no"?>
<!DOCTYPE svg PUBLIC "-//W3C//DTD SVG 1.1//EN" "http://www.w3.org/Graphics/SVG/1.1/DTD/svg11.dtd" >
<svg xmlns="http://www.w3.org/2000/svg">
<metadata></metadata>
<defs>
<font id="conduititcstdblack" horiz-adv-x="1118" >
<font-face units-per-em="2048" ascent="1638" descent="-410" />
<missing-glyph horiz-adv-x="364" />
<glyph unicode="&#xfb01;" horiz-adv-x="1144" d="M25 606v240q0 20 18 20h57q27 0 27 21q11 189 132 306.5t319 117.5h40q25 0 25 -23v-244q0 -20 -22 -20h-52q-50 0 -77 -26.5t-27 -71.5v-39q0 -21 24 -21h134q20 0 20 -20v-240q0 -20 -20 -20h-134q-24 0 -24 -21v-545q0 -20 -21 -20h-299q-18 0 -18 20v545q0 21 -29 21 h-55q-18 0 -18 20zM717 1157q0 68 50.5 115t119.5 47q71 0 121.5 -47t50.5 -115q0 -66 -50.5 -112t-121.5 -46q-73 0 -121.5 44.5t-48.5 113.5zM719 20v928q0 19 20 19h299q6 0 12.5 -5t6.5 -14v-928q0 -20 -19 -20h-299q-20 0 -20 20z" />
<glyph unicode="&#xfb02;" horiz-adv-x="1142" d="M25 606v240q0 20 18 20h57q27 0 27 21q11 187 131 296t320 109h460q19 0 19 -20v-1252q0 -20 -19 -20h-297q-22 0 -22 20v969q0 17 -17 17h-133q-50 0 -77 -27t-27 -72v-20q0 -21 24 -21h113q21 0 21 -20v-240q0 -20 -21 -20h-113q-24 0 -24 -21v-545q0 -20 -21 -20h-299 q-18 0 -18 20v545q0 21 -29 21h-55q-18 0 -18 20z" />
<glyph unicode="&#xfb03;" horiz-adv-x="1744" d="M25 606v240q0 20 18 20h57q27 0 27 21q11 189 132 306.5t319 117.5q175 0 299 -76q17 -11 34 0q112 76 269 76h41q24 0 24 -23v-244q0 -20 -22 -20h-52q-50 0 -77 -26.5t-27 -71.5v-39q0 -21 25 -21h133q20 0 20 -20v-240q0 -20 -20 -20h-133q-25 0 -25 -21v-545 q0 -20 -20 -20h-299q-19 0 -19 20v545q0 21 -29 21h-211q-24 0 -24 -21v-545q0 -20 -21 -20h-299q-18 0 -18 20v545q0 21 -29 21h-55q-18 0 -18 20zM465 887q0 -21 24 -21h213q27 0 27 21q4 48 8 74q5 23 -16 34q-62 29 -152 29q-50 0 -77 -26.5t-27 -71.5v-39zM1319 1157 q0 68 50.5 115t119.5 47q71 0 121.5 -47t50.5 -115q0 -66 -50.5 -112t-121.5 -46q-73 0 -121.5 44.5t-48.5 113.5zM1321 20v928q0 19 20 19h299q6 0 12.5 -5t6.5 -14v-928q0 -20 -19 -20h-299q-20 0 -20 20z" />
<glyph unicode="&#xfb04;" horiz-adv-x="1744" d="M25 606v240q0 20 18 20h57q27 0 27 21q11 189 132 306.5t319 117.5q186 0 313 -84q16 -11 35 0q100 65 254 65h460q19 0 19 -20v-1252q0 -20 -19 -20h-297q-22 0 -22 20v969q0 17 -16 17h-134q-50 0 -77 -27t-27 -72v-20q0 -21 25 -21h112q21 0 21 -20v-240 q0 -20 -21 -20h-112q-25 0 -25 -21v-545q0 -20 -20 -20h-299q-19 0 -19 20v545q0 21 -29 21h-211q-24 0 -24 -21v-545q0 -20 -21 -20h-299q-18 0 -18 20v545q0 21 -29 21h-55q-18 0 -18 20zM465 887q0 -21 24 -21h213q27 0 27 21q4 48 8 74q5 23 -16 34q-62 29 -152 29 q-50 0 -77 -26.5t-27 -71.5v-39z" />
<glyph horiz-adv-x="2048" />
<glyph horiz-adv-x="2048" />
<glyph unicode="&#xd;" horiz-adv-x="2048" />
<glyph unicode=" "  horiz-adv-x="364" />
<glyph unicode="&#x09;" horiz-adv-x="364" />
<glyph unicode="&#xa0;" horiz-adv-x="364" />
<glyph unicode="!" horiz-adv-x="575" d="M102 160q0 70 55.5 120t131.5 50q70 0 127 -52.5t57 -117.5q0 -67 -57 -119.5t-127 -52.5q-75 0 -131 51.5t-56 120.5zM117 725v547q0 20 20 20h301q19 0 19 -20v-549l-43 -320q-3 -16 -19 -16h-215q-15 0 -18 16z" />
<glyph unicode="&#x22;" horiz-adv-x="753" d="M47 1257q-2 11 4.5 18t16.5 7h268q18 0 18 -25l-28 -419q0 -19 -23 -19h-172q-17 0 -20 19zM399 1257q-2 11 4.5 18t16.5 7h268q10 0 15.5 -7t3.5 -18l-60 -419q-3 -19 -22 -19h-172q-21 0 -21 19z" />
<glyph unicode="#" horiz-adv-x="1222" d="M12 346l58 201q5 18 22 18h144q24 0 32 25l35 110q9 27 -14 27h-131q-11 0 -16.5 6t-2.5 15l56 200q5 19 22 19h145q25 0 31 20l92 291q3 14 21 14h213q8 0 12.5 -5.5t1.5 -12.5l-90 -287q-6 -20 14 -20h115q21 0 27 18l92 293q3 14 18 14h211q22 0 15 -22l-88 -283 q-7 -20 16 -20h139q9 0 14 -5.5t3 -13.5l-58 -203q-5 -18 -26 -18h-146q-27 0 -33 -22l-36 -117q-7 -23 14 -23h143q9 0 14 -5t3 -13l-60 -203q-5 -18 -26 -18h-146q-25 0 -31 -21l-92 -291q-3 -14 -18 -14h-209q-8 0 -12.5 6.5t-1.5 16.5l88 280q4 11 -0.5 17t-14.5 6h-116 q-21 0 -29 -21l-92 -291q-4 -14 -19 -14h-209q-9 0 -14 6.5t-2 16.5l88 280q6 23 -14 23h-133q-11 0 -16.5 5.5t-2.5 14.5zM516 590q-6 -25 19 -25h108q25 0 33 27l35 108q4 12 -1 19.5t-16 7.5h-108q-26 0 -35 -25z" />
<glyph unicode="$" d="M45 913q0 178 105 282.5t294 121.5q23 3 23 20v41q0 21 18 21h150q16 0 16 -21v-39q0 -11 5 -16t18 -6q163 -14 276 -113q58 -51 94 -114q19 -29 -4 -43l-213 -142q-10 -8 -22.5 -6.5t-18.5 12.5q-46 85 -110 101q-11 3 -18 -2t-7 -17v-184q0 -22 21 -25 q61 -12 114 -30.5t106.5 -51.5t91.5 -76t61.5 -107.5t23.5 -141.5q0 -180 -102 -285t-293 -117q-13 -2 -18 -6.5t-5 -15.5v-41q0 -21 -16 -21h-150q-18 0 -18 21v41q0 19 -23 22q-163 14 -274 111q-52 44 -96 117q-19 29 4 43l213 141q10 8 22.5 6.5t18.5 -12.5 q42 -79 108 -100q27 -9 27 20v186q0 26 -21 29q-401 80 -401 397zM379 913q0 -48 65 -75q10 -4 16.5 -0.5t6.5 14.5v137q0 15 -6 20.5t-17 2.5q-65 -21 -65 -99zM651 299q0 -24 23 -16q28 11 44.5 36t16.5 58q0 53 -61 80q-23 10 -23 -15v-143z" />
<glyph unicode="%" horiz-adv-x="1329" d="M59 891v178q0 98 68 160.5t174 62.5q114 0 182 -58t68 -155v-188q0 -97 -68 -155t-182 -58q-109 0 -175.5 58t-66.5 155zM252 891q0 -19 15 -31t38 -12t38 12t15 31v188q0 19 -15 31t-38 12t-38 -12t-15 -31v-188zM258 23l600 1257q6 12 21 12h178q11 0 14.5 -5.5 t-0.5 -14.5l-602 -1256q-8 -16 -29 -16h-168q-9 0 -13.5 7t-0.5 16zM778 213v178q0 98 68 160.5t174 62.5q114 0 182 -58t68 -155v-188q0 -97 -68 -155t-182 -58q-109 0 -175.5 58t-66.5 155zM971 213q0 -19 15 -31t38 -12t38 12t15 31v188q0 19 -15 31t-38 12t-38 -12 t-15 -31v-188z" />
<glyph unicode="&#x26;" horiz-adv-x="1359" d="M78 379q0 149 84 246q14 17 0 37q-84 100 -84 256q0 171 127 286t309 115q208 0 323 -108.5t115 -292.5q0 -168 -168 -273q-21 -14 -2 -27q21 -15 39 -30q16 -13 29 2q36 48 71 83.5t83 68.5t108.5 50t132.5 17h62q24 0 24 -27v-272q0 -27 -22 -27h-64q-73 0 -145 -92 q-14 -17 4 -29q98 -55 199 -55q28 0 28 -33v-292q0 -23 -24 -23q-242 0 -400 127q-23 18 -39 2q-136 -129 -313 -129q-226 0 -351.5 110.5t-125.5 309.5zM428 383q0 -44 26.5 -69t73.5 -25q62 0 109 35q19 14 0 30q-76 63 -152 99q-15 7 -21.5 5.5t-14.5 -12.5 q-21 -32 -21 -63zM428 920q0 -66 57 -117q16 -16 43 -6q54 22 77.5 51.5t23.5 75.5q0 39 -27.5 65.5t-71.5 26.5t-73 -27.5t-29 -68.5z" />
<glyph unicode="'" horiz-adv-x="432" d="M47 1257q-2 11 4.5 18t16.5 7h299q22 0 18 -25l-59 -419q-3 -19 -23 -19h-172q-17 0 -20 19z" />
<glyph unicode="(" horiz-adv-x="813" d="M197 82v983q0 85 29.5 158t87.5 129.5t153.5 88.5t218.5 32q17 0 26 -8t9 -21v-254q0 -29 -33 -29q-73 0 -113 -35t-40 -94v-917q0 -59 40 -94t113 -35q33 0 33 -29v-254q0 -13 -9 -21t-26 -8q-123 0 -218.5 32t-153.5 88.5t-87.5 129.5t-29.5 158z" />
<glyph unicode=")" horiz-adv-x="813" d="M92 -43q0 29 33 29q73 0 113.5 35.5t40.5 93.5v917q0 58 -40.5 93.5t-113.5 35.5q-33 0 -33 29v254q0 13 9 21t26 8q123 0 218.5 -32t153.5 -88.5t87.5 -129.5t29.5 -158v-983q0 -85 -29.5 -158t-87.5 -129.5t-153.5 -88.5t-218.5 -32q-17 0 -26 8t-9 21v254z" />
<glyph unicode="*" horiz-adv-x="868" d="M5.5 945.5q3.5 8.5 12.5 10.5l177 41q15 3 16 16.5t-16 18.5l-172 43q-11 3 -14 11.5t3 17.5l129 211q11 18 29 4l131 -121q12 -12 24 -5.5t7 21.5l-43 150q-3 10 3 18.5t15 8.5h252q12 0 17 -7t2 -18l-41 -154q-4 -15 7.5 -21t22.5 5l140 125q6 6 14 4.5t12 -10.5 l125 -207q6 -9 3 -17.5t-13 -11.5l-174 -47q-14 -3 -14 -17.5t14 -17.5l178 -39q24 -7 10 -28l-129 -205q-12 -17 -26 -6l-142 112q-12 10 -22.5 3.5t-5.5 -21.5l41 -160q3 -9 -1.5 -14.5t-15.5 -5.5h-258q-22 0 -16 20l37 154q4 19 -5.5 24.5t-23.5 -6.5l-129 -112 q-17 -14 -29 4l-129 211q-6 9 -2.5 17.5z" />
<glyph unicode="+" d="M66 406v206q0 21 18 21h315q25 0 25 20v318q0 20 20 20h224q18 0 18 -20v-318q0 -20 27 -20h319q21 0 21 -21v-206q0 -19 -21 -19h-319q-27 0 -27 -22v-318q0 -18 -18 -18h-224q-20 0 -20 18v318q0 10 -7.5 16t-17.5 6h-315q-18 0 -18 19z" />
<glyph unicode="," horiz-adv-x="534" d="M51.5 -99q2.5 10 11.5 13q49 12 77 36.5t28 55.5q0 21 -13 35t-32 14h-21q-20 0 -20 21v250q0 20 20 20h330q23 0 23 -20v-195q0 -172 -78 -272q-69 -83 -201 -142q-27 -12 -39 11l-82 151q-6 12 -3.5 22z" />
<glyph unicode="-" horiz-adv-x="645" d="M61 344v279q0 20 19 20h483q21 0 21 -20v-279q0 -18 -21 -18h-483q-19 0 -19 18z" />
<glyph unicode="." horiz-adv-x="534" d="M82 160q0 70 55.5 120t130.5 50q70 0 127.5 -52.5t57.5 -117.5q0 -67 -57.5 -119.5t-127.5 -52.5q-75 0 -130.5 51.5t-55.5 120.5z" />
<glyph unicode="/" horiz-adv-x="768" d="M-29 29l594 1243q10 20 33 20h182q15 0 20 -8t-1 -20l-594 -1244q-10 -20 -31 -20h-186q-11 0 -16 9.5t-1 19.5z" />
<glyph unicode="0" d="M86 358v576q0 173 123.5 279t320.5 106h62q197 0 318.5 -105.5t121.5 -279.5v-576q0 -171 -122 -278t-318 -107h-62q-200 0 -322 106t-122 279zM422 358q0 -33 31.5 -58.5t76.5 -25.5h62q46 0 73 23.5t27 60.5v576q0 37 -28 61.5t-72 24.5h-62q-43 0 -75.5 -26.5 t-32.5 -59.5v-576z" />
<glyph unicode="1" d="M139 887q-15 15 0 28l402 365q12 12 34 12h170q19 0 19 -20v-948q0 -23 29 -23h194q19 0 19 -18v-263q0 -20 -19 -20h-786q-19 0 -19 20v263q0 18 19 18h196q25 0 25 23v405q0 9 -6 12t-15 -2l-43 -24q-14 -8 -28 2z" />
<glyph unicode="2" d="M74 1044q53 99 104 152q117 123 324 123h78q205 0 322.5 -97t117.5 -261v-93q0 -59 -24 -110.5t-64 -87t-90.5 -68t-103 -55.5t-103 -47.5t-90.5 -46t-64 -49t-24 -58.5v-22q0 -12 5 -17.5t21 -5.5h504q21 0 21 -18v-263q0 -20 -21 -20h-852q-18 0 -18 20v308 q0 73 19.5 135t52 106t75 80.5t89.5 62t94.5 47.5t90 41t75 38t52 42t19.5 50q0 39 -25.5 64.5t-68.5 25.5h-72q-83 0 -147 -115q-16 -28 -39 -16l-254 117q-18 9 -4 38z" />
<glyph unicode="3" d="M74 248q-15 30 4 39l254 116q23 12 39 -16q64 -115 147 -115h43q51 0 79 26.5t28 66.5v67q0 38 -26.5 60t-80.5 22h-219q-20 0 -20 18v265q0 18 20 18h219q52 0 79.5 23t27.5 59v37q0 38 -28 62t-79 24h-43q-83 0 -147 -115q-16 -28 -39 -16l-254 117q-18 9 -4 38 q38 74 88 134q64 73 145.5 107t194.5 34h59q202 0 324.5 -110.5t122.5 -295.5v-34q0 -53 -24 -103.5t-62 -83.5q-11 -11 -10.5 -16.5t10.5 -13.5q86 -73 86 -224v-57q0 -187 -122 -297.5t-325 -110.5h-59q-212 0 -334 136q-47 49 -94 139z" />
<glyph unicode="4" d="M31 279v225l573 774q8 14 31 14h258q7 0 13.5 -4.5t6.5 -15.5v-690q0 -21 23 -21h133q21 0 21 -20v-262q0 -19 -21 -19h-135q-21 0 -21 -22v-218q0 -20 -20 -20h-303q-19 0 -19 20v218q0 22 -22 22h-500q-18 0 -18 19zM405.5 567.5q2.5 -6.5 12.5 -6.5h133q20 0 20 17 v200q0 19 4.5 49.5t8.5 50.5l4 21h-6q-27 -69 -45 -100l-129 -217q-5 -8 -2.5 -14.5z" />
<glyph unicode="5" d="M96 203q-19 29 4 43l213 141q10 8 22.5 6.5t18.5 -12.5q57 -107 158 -107h63q48 0 77.5 26.5t29.5 72.5v59q0 36 -27.5 59t-72.5 23h-406q-20 0 -20 18v740q0 20 20 20h807q21 0 21 -20v-262q0 -19 -21 -19h-459q-26 0 -26 -22v-131q0 -23 26 -23h90q206 0 307 -83 t101 -265v-88q0 -192 -112 -299t-326 -107h-68q-193 0 -323 111q-55 50 -97 119z" />
<glyph unicode="6" d="M90 358v576q0 174 119 279.5t328 105.5h75q213 0 334 -135q46 -48 94 -140q14 -29 -4 -38l-254 -117q-23 -12 -39 16q-64 115 -147 115h-59q-44 0 -74.5 -25.5t-30.5 -60.5v-125q0 -10 8 -13.5t15 1.5q47 26 102 26h90q181 0 292.5 -108.5t111.5 -278.5v-78 q0 -173 -123.5 -279t-323.5 -106h-67q-199 0 -323 106.5t-124 278.5zM432 358q0 -37 28 -60.5t77 -23.5h67q45 0 76 25t31 59v78q0 34 -31 60t-76 26h-67q-44 0 -74.5 -24.5t-30.5 -61.5v-78z" />
<glyph unicode="7" d="M133 1010v262q0 20 21 20h847q19 0 19 -20v-424q0 -62 -28 -118t-73 -97.5t-99.5 -79t-109 -69t-99.5 -61t-73 -62.5t-28 -66v-275q0 -20 -18 -20h-297q-21 0 -21 20v353q0 62 28 118t73 97.5t99.5 79t109 69t99.5 61t73 62.5t28 66v43q0 12 -5.5 17t-21.5 5h-503 q-21 0 -21 19z" />
<glyph unicode="8" d="M86 393v35q0 153 96 236q16 12 0 22q-96 71 -96 182v45q0 188 121 297t323 109h62q199 0 319.5 -110.5t120.5 -295.5v-45q0 -60 -27 -107t-71 -75q-13 -7 0 -20q45 -39 71.5 -101.5t26.5 -136.5v-53q0 -184 -120 -293t-320 -109h-62q-205 0 -324.5 112t-119.5 308z M422 358q0 -33 31.5 -58.5t76.5 -25.5h62q46 0 73 23.5t27 60.5v84q0 36 -27.5 59t-72.5 23h-62q-46 0 -77 -24.5t-31 -57.5v-84zM422 866q0 -31 32.5 -56.5t75.5 -25.5h62q44 0 72 24t28 58v68q0 37 -28 61.5t-72 24.5h-62q-43 0 -75.5 -26.5t-32.5 -59.5v-68z" />
<glyph unicode="9" d="M68 815v119q0 173 123 279t323 106h68q199 0 322.5 -106.5t123.5 -278.5v-576q0 -175 -118.5 -280t-327.5 -105h-76q-193 0 -332 101q-48 38 -88 78q-24 24 -8 38l192 191q9 9 21 8t20 -10q99 -107 211 -107h60q44 0 74 25t30 61v84q0 10 -7 14t-15 -1q-49 -27 -103 -27 h-90q-181 0 -292 108.5t-111 278.5zM408 815q0 -35 30.5 -60.5t75.5 -25.5h68q44 0 74 24.5t30 61.5v119q0 38 -27.5 61t-76.5 23h-68q-45 0 -75.5 -25t-30.5 -59v-119z" />
<glyph unicode=":" horiz-adv-x="534" d="M82 158q0 71 55 120.5t131 49.5q70 0 127.5 -51.5t57.5 -118.5q0 -65 -57.5 -117.5t-127.5 -52.5q-75 0 -130.5 51t-55.5 119zM82 645q0 69 55.5 119.5t130.5 50.5q70 0 127.5 -51.5t57.5 -118.5q0 -69 -56.5 -118.5t-128.5 -49.5q-75 0 -130.5 49.5t-55.5 118.5z" />
<glyph unicode=";" horiz-adv-x="534" d="M51.5 -99q2.5 10 11.5 13q49 12 77 36.5t28 55.5q0 21 -13 35t-32 14h-21q-20 0 -20 21v250q0 20 20 20h330q23 0 23 -20v-195q0 -175 -84 -278q-62 -76 -195 -136q-27 -12 -39 11l-82 151q-6 12 -3.5 22zM82 645q0 69 56.5 119.5t131.5 50.5q69 0 126 -52t57 -118 q0 -69 -56 -118.5t-127 -49.5q-76 0 -132 49.5t-56 118.5z" />
<glyph unicode="&#x3c;" d="M106 426v172q0 12 13 18l723 383q16 8 24 -6l117 -180q13 -19 -8 -29l-498 -254q-14 -8 -14.5 -19t14.5 -19l494 -246q18 -9 10 -25l-109 -192q-9 -18 -28 -9l-725 386q-13 6 -13 20z" />
<glyph unicode="=" d="M66 225v205q0 21 18 21h948q9 0 15 -6t6 -15v-205q0 -20 -21 -20h-948q-18 0 -18 20zM66 608v211q0 19 18 19h948q21 0 21 -19v-211q0 -18 -21 -18h-948q-18 0 -18 18z" />
<glyph unicode="&#x3e;" d="M135 813l117 180q8 14 24 6l723 -383q13 -6 13 -18v-172q0 -14 -13 -20l-725 -386q-19 -9 -28 9l-109 192q-8 16 10 25l494 246q15 8 14.5 19t-14.5 19l-498 254q-21 10 -8 29z" />
<glyph unicode="?" horiz-adv-x="1052" d="M49 1051q42 85 109 149q123 111 315 111h76q197 0 319.5 -107t122.5 -278q0 -120 -45 -188t-121 -105q-31 -16 -80.5 -33.5t-77.5 -28.5t-50.5 -33t-22.5 -53v-75q0 -23 -25 -23h-256q-32 0 -32 33v110q0 95 42.5 151.5t114.5 92.5q25 13 73 33t72 31.5t45 34.5t21 53 q0 36 -29 61t-71 25h-76q-39 0 -78 -27t-57 -70q-9 -22 -18.5 -29t-32.5 1l-224 106q-33 16 -14 58zM252 160q0 70 55.5 120t130.5 50q70 0 127.5 -52.5t57.5 -117.5q0 -67 -57.5 -119.5t-127.5 -52.5q-75 0 -130.5 51.5t-55.5 120.5z" />
<glyph unicode="@" horiz-adv-x="1589" d="M135 352v588q0 170 120.5 274.5t317.5 104.5h469q194 0 315.5 -104.5t121.5 -274.5v-424q0 -94 -72 -155.5t-178 -61.5h-80q-103 0 -164 31q-21 9 -35 -2q-62 -47 -157 -47q-151 0 -235.5 76.5t-84.5 217.5v150q0 127 71.5 201.5t215.5 74.5q80 0 125 -38q18 -13 18 6v16 q0 7 5.5 11.5t11.5 4.5h167q27 0 27 -26v-449q0 -13 5 -17.5t22 -4.5h84q28 0 28 22v414q0 75 -56.5 120.5t-154.5 45.5h-469q-99 0 -157 -46t-58 -120v-588q0 -75 57 -120.5t158 -45.5h588q11 0 21 -8.5t10 -19.5v-154q0 -13 -10 -22t-21 -9h-588q-197 0 -317.5 104.5 t-120.5 274.5zM702 569q0 -35 28.5 -60.5t68.5 -25.5t67 25.5t27 60.5v136q0 36 -26 62t-66 26q-42 0 -70.5 -25.5t-28.5 -62.5v-136z" />
<glyph unicode="A" horiz-adv-x="1073" d="M-23 27l429 1251q6 14 20 14h223q14 0 19 -14l428 -1251q3 -7 3 -12q0 -15 -22 -15h-321q-13 0 -19 14l-53 154q-6 14 -27 14h-245q-19 0 -25 -14l-55 -154q-6 -14 -19 -14h-315q-14 0 -20 8q-3 4 -3 10q0 4 2 9zM457 442q-1 -2 -1 -4q0 -5 4 -9q6 -5 17 -5h119 q19 0 19 13q0 2 -1 5l-32 160q-11 54 -21 117t-14 99l-4 36h-6q-14 -131 -43 -252z" />
<glyph unicode="B" horiz-adv-x="1185" d="M100 20v1252q0 20 19 20h571q212 0 326 -91.5t114 -272.5v-60q0 -66 -31.5 -120.5t-88.5 -83.5q-12 -6 -12 -13.5t12 -13.5q56 -29 88 -84.5t32 -120.5v-57q0 -169 -115.5 -272t-324.5 -103h-571q-19 0 -19 20zM442 324q0 -23 25 -23h223q42 0 72.5 25.5t30.5 58.5v57 q0 35 -27.5 58.5t-75.5 23.5h-223q-25 0 -25 -22v-178zM442 807q0 -23 25 -23h223q103 0 103 82v39q0 39 -26 62.5t-77 23.5h-223q-25 0 -25 -22v-162z" />
<glyph unicode="C" horiz-adv-x="1099" d="M70 358v576q0 175 119.5 280t324.5 105h141q195 0 310 -109q64 -64 118 -166q6 -13 6 -22q0 -11 -10 -16l-254 -117q-23 -12 -39 16q-64 115 -149 115h-123q-51 0 -79.5 -23.5t-28.5 -62.5v-576q0 -39 28.5 -62.5t79.5 -23.5h123q85 0 149 115q16 28 39 16l254 -116 q11 -5 11 -17q0 -9 -7 -22q-68 -131 -151 -193q-106 -82 -277 -82h-141q-205 0 -324.5 105t-119.5 280z" />
<glyph unicode="D" horiz-adv-x="1200" d="M100 20v1252q0 20 19 20h571q202 0 321 -108.5t119 -296.5v-486q0 -185 -119 -293t-321 -108h-571q-19 0 -19 20zM442 324q0 -23 25 -23h223q42 0 72.5 25.5t30.5 58.5v520q0 32 -31.5 59t-71.5 27h-223q-25 0 -25 -22v-645z" />
<glyph unicode="E" horiz-adv-x="1030" d="M100 20v1252q0 20 19 20h852q20 0 20 -20v-262q0 -19 -20 -19h-504q-25 0 -25 -22v-142q0 -22 25 -22h414q20 0 20 -19v-264q0 -18 -20 -18h-414q-25 0 -25 -23v-157q0 -23 25 -23h504q20 0 20 -18v-263q0 -20 -20 -20h-852q-19 0 -19 20z" />
<glyph unicode="F" horiz-adv-x="989" d="M100 20v1252q0 20 19 20h852q20 0 20 -20v-262q0 -19 -20 -19h-504q-25 0 -25 -22v-142q0 -22 25 -22h414q20 0 20 -19v-264q0 -18 -20 -18h-414q-25 0 -25 -23v-461q0 -20 -20 -20h-303q-19 0 -19 20z" />
<glyph unicode="G" horiz-adv-x="1159" d="M70 358v576q0 175 119.5 280t324.5 105h162q206 0 325 -125q54 -57 103 -150q6 -13 6 -22q0 -11 -10 -16l-254 -117q-23 -12 -39 16q-64 115 -148 115h-145q-51 0 -79.5 -23.5t-28.5 -62.5v-576q0 -38 30.5 -61t77.5 -23h143q47 0 74 22t27 62v84q0 21 -25 21h-153 q-19 0 -19 20v219q0 21 19 21h499q19 0 19 -21v-344q0 -182 -115.5 -283.5t-325.5 -101.5h-143q-212 0 -328 102.5t-116 282.5z" />
<glyph unicode="H" horiz-adv-x="1259" d="M100 20v1252q0 20 19 20h303q7 0 13.5 -4.5t6.5 -15.5v-445q0 -22 25 -22h330q26 0 26 22v445q0 20 19 20h297q20 0 20 -20v-1252q0 -20 -20 -20h-297q-19 0 -19 20v461q0 23 -26 23h-330q-25 0 -25 -23v-461q0 -20 -20 -20h-303q-19 0 -19 20z" />
<glyph unicode="I" horiz-adv-x="542" d="M100 20v1252q0 20 19 20h301q22 0 22 -20v-1252q0 -20 -22 -20h-301q-19 0 -19 20z" />
<glyph unicode="J" horiz-adv-x="909" d="M-45 268q-3 8 -3 13q0 11 11 16l273 119q24 11 34 -13q43 -122 138 -122q45 0 68.5 22.5t23.5 61.5v907q0 20 20 20h301q19 0 19 -20v-879q0 -197 -116.5 -305t-332.5 -108q-245 0 -371 170q-37 48 -65 118z" />
<glyph unicode="K" horiz-adv-x="1206" d="M100 20v1252q0 20 19 20h303q7 0 13.5 -4.5t6.5 -15.5v-285q0 -80 -18 -139l358 430q10 14 29 14h367q18 0 21.5 -10t-7.5 -22l-453 -506q-9 -12 0 -23l484 -700q5 -7 5 -14q0 -4 -2 -7q-4 -10 -20 -10h-395q-22 0 -33 16l-274 428q-6 10 -15.5 9.5t-17.5 -9.5l-29 -30 v-394q0 -20 -20 -20h-303q-19 0 -19 20z" />
<glyph unicode="L" horiz-adv-x="1015" d="M100 20v1252q0 20 19 20h303q20 0 20 -20v-948q0 -23 25 -23h504q20 0 20 -18v-263q0 -20 -20 -20h-852q-19 0 -19 20z" />
<glyph unicode="M" horiz-adv-x="1419" d="M100 20v1252q0 20 19 20h305q14 0 20 -12l244 -629q8 -20 14 -40.5t8 -30.5l1 -11h8q10 37 26 82l236 629q6 12 20 12h297q21 0 21 -20v-1252q0 -20 -21 -20h-282q-11 0 -15 4t-4 16v265q0 86 3.5 180t7.5 145l4 52h-6q-19 -93 -52 -185l-108 -303q-8 -20 -35 -20h-199 q-30 0 -37 20l-108 309q-15 41 -27.5 85.5t-17.5 69.5l-6 24h-6q18 -178 18 -373v-269q0 -12 -4.5 -16t-15.5 -4h-289q-19 0 -19 20z" />
<glyph unicode="N" horiz-adv-x="1177" d="M100 20v1252q0 20 19 20h260q18 0 27 -18l303 -578q13 -24 24 -48.5t16 -37.5l5 -12h6q-10 160 -10 342v332q0 20 18 20h289q20 0 20 -20v-1252q0 -20 -20 -20h-256q-12 0 -23 18l-305 566q-12 21 -22.5 44t-15.5 36l-5 12h-8q12 -162 12 -330v-326q0 -20 -20 -20h-295 q-19 0 -19 20z" />
<glyph unicode="O" horiz-adv-x="1167" d="M70 358v576q0 173 123.5 279t320.5 106h143q197 0 319 -105.5t122 -279.5v-576q0 -173 -122 -279t-319 -106h-143q-200 0 -322 106t-122 279zM406 358q0 -39 27.5 -61.5t80.5 -22.5h143q47 0 74 23.5t27 60.5v576q0 37 -28.5 61.5t-72.5 24.5h-143q-43 0 -75.5 -26.5 t-32.5 -59.5v-576z" />
<glyph unicode="P" horiz-adv-x="1056" d="M100 20v1252q0 20 19 20h489q203 0 322 -97t119 -275v-82q0 -153 -122 -243.5t-319 -90.5h-141q-25 0 -25 -23v-461q0 -20 -20 -20h-303q-19 0 -19 20zM442 827q0 -22 25 -22h141q48 0 75.5 19t27.5 53v41q0 32 -27.5 52.5t-75.5 20.5h-141q-25 0 -25 -22v-142z" />
<glyph unicode="Q" horiz-adv-x="1167" d="M70 344v590q0 173 123.5 279t320.5 106h143q197 0 319 -105.5t122 -279.5v-590q0 -148 -90 -247.5t-244 -127.5q-19 -3 -19 -20v-92q0 -21 -22 -21h-285q-20 0 -20 21v92q0 15 -19 20q-153 28 -241 128t-88 247zM406 324q0 -26 14 -43q4 -6 10.5 -6t11.5 6l54 90 q11 20 30 20h109q22 0 33 -20l53 -90q5 -8 13 -9h1q7 0 13 9q10 15 10 43v610q0 37 -28.5 61.5t-72.5 24.5h-143q-43 0 -75.5 -26.5t-32.5 -59.5v-610z" />
<glyph unicode="R" horiz-adv-x="1185" d="M100 20v1252q0 20 19 20h571q202 0 321 -108.5t119 -296.5v-19q0 -93 -39.5 -165.5t-109.5 -116.5q-20 -14 -10 -45l200 -514q3 -6 3 -11q0 -4 -2 -8q-4 -8 -19 -8h-319q-12 0 -19 14l-188 475q-6 15 -19 15h-141q-25 0 -25 -23v-461q0 -20 -20 -20h-303q-19 0 -19 20z M442 807q0 -23 25 -23h223q48 0 75.5 21t27.5 61v39q0 86 -103 86h-223q-25 0 -25 -22v-162z" />
<glyph unicode="S" horiz-adv-x="1001" d="M37 203q-9 13 -9 23q0 12 13 20l213 141q10 8 22.5 6.5t18.5 -12.5q57 -107 158 -107h63q48 0 76.5 25.5t28.5 69.5q0 22 -9.5 40t-21.5 29.5t-38.5 23.5t-46.5 18.5t-60 19t-64 20.5q-88 30 -147 62t-105.5 77.5t-68 107.5t-21.5 146q0 190 119.5 298t330.5 108h31 q197 0 322 -109q55 -47 98 -118q20 -30 -4 -45l-213 -142q-10 -8 -22.5 -6.5t-18.5 12.5q-57 107 -158 107h-35q-102 0 -102 -94q0 -13 4 -24.5t13 -22t18.5 -18.5t26 -16.5t28.5 -14t33 -13t34 -11.5t36 -11t34 -11q188 -59 271.5 -149t83.5 -256q0 -190 -117 -297 t-332 -107h-63q-210 0 -338 125q-45 42 -82 105z" />
<glyph unicode="T" horiz-adv-x="903" d="M8 1010v262q0 20 21 20h848q18 0 18 -20v-262q0 -19 -18 -19h-230q-14 0 -19 -5.5t-5 -16.5v-949q0 -20 -21 -20h-301q-18 0 -18 20v949q0 12 -5.5 17t-21.5 5h-227q-21 0 -21 19z" />
<glyph unicode="U" horiz-adv-x="1206" d="M90 358v914q0 20 19 20h297q18 0 18 -20v-914q0 -84 108 -84h144q102 0 102 84v914q0 20 19 20h301q18 0 18 -20v-914q0 -173 -121.5 -279t-318.5 -106h-144q-199 0 -320.5 106t-121.5 279z" />
<glyph unicode="V" horiz-adv-x="1073" d="M-23 1266q-2 5 -2 9q-1 6 3 10q6 7 20 7h321q18 0 21 -14l158 -547q33 -121 39 -176h6q8 69 37 176l151 547q3 14 19 14h327q11 0 17 -8q4 -5 3 -11q0 -3 -1 -7l-428 -1252q-6 -14 -19 -14h-223q-15 0 -20 14z" />
<glyph unicode="W" horiz-adv-x="1470" d="M-12 1268q-1 4 -1 7q0 6 3 10q5 7 16 7h316q15 0 18 -16l106 -621q4 -21 6.5 -51t3.5 -50l1 -19h6q4 73 14 120l135 617q4 20 23 20h217q19 0 22 -18l119 -617q4 -23 7 -53.5t4 -49.5v-19h6q4 71 12 122l108 619q3 16 19 16h315q12 0 17 -6q3 -4 3 -10q0 -3 -1 -8 l-299 -1252q-3 -16 -19 -16h-241q-16 0 -19 14l-153 623q-5 22 -9 50t-5 45l-1 18h-6q-2 -66 -14 -113l-150 -623q-3 -14 -20 -14h-240q-15 0 -18 16z" />
<glyph unicode="X" horiz-adv-x="1101" d="M-14 1284q5 8 16 8h342q26 0 35 -18l158 -311q6 -12 14 -12t14 12l158 311q9 18 35 18h342q11 0 16 -8q2 -3 2 -7q0 -6 -4 -13l-356 -602q-10 -21 2 -41l346 -590q8 -12 3.5 -21.5t-19.5 -9.5h-330q-30 0 -43 27l-154 301q-5 10 -12 10t-12 -10l-154 -301 q-13 -27 -43 -27h-328q-15 0 -20.5 9.5t2.5 21.5l346 592q12 21 2 39l-356 602q-4 7 -4 13q0 4 2 7z" />
<glyph unicode="Y" horiz-adv-x="1003" d="M-76 1283q6 9 19 9h342q21 0 32 -20l164 -299q8 -13 19.5 -13t19.5 13l170 299q11 20 33 20h338q15 0 19 -9q2 -3 2 -7q0 -6 -5 -14l-405 -682v-560q0 -20 -21 -20h-299q-18 0 -18 20v560l-408 682q-4 7 -4 12t2 9z" />
<glyph unicode="Z" horiz-adv-x="993" d="M-1 8q-2 4 -2 9q0 6 3 12l475 932q7 12 1.5 21t-23.5 9h-359q-20 0 -20 19v262q0 20 20 20h879q23 0 23 -15q0 -6 -3 -13l-475 -932q-7 -12 -1 -21.5t24 -9.5h397q20 0 20 -18v-263q0 -20 -20 -20h-922q-12 0 -17 8z" />
<glyph unicode="[" horiz-adv-x="829" d="M197 -305v1755q0 20 18 20h483q23 0 23 -20v-262q0 -21 -23 -21h-139q-24 0 -24 -20v-1149q0 -21 24 -21h139q23 0 23 -20v-262q0 -21 -23 -21h-483q-18 0 -18 21z" />
<glyph unicode="\" horiz-adv-x="768" d="M-29 1264q-5 11 0 19.5t17 8.5h196q11 0 17 -12l598 -1251q5 -11 -0.5 -20t-18.5 -9h-190q-15 0 -21 12z" />
<glyph unicode="]" horiz-adv-x="829" d="M109 -43q0 20 18 20h133q29 0 29 21v1149q0 11 -6 15.5t-23 4.5h-133q-18 0 -18 21v262q0 20 18 20h483q23 0 23 -20v-1755q0 -21 -23 -21h-483q-18 0 -18 21v262z" />
<glyph unicode="^" d="M-8 475l430 844h258l444 -844h-325l-244 553h-8l-230 -553h-325z" />
<glyph unicode="_" horiz-adv-x="550" d="M-20 -244q0 19 18 19h555q12 0 16 -4t4 -15v-157q0 -21 -20 -21h-555q-18 0 -18 21v157z" />
<glyph unicode="`" horiz-adv-x="1107" d="M65 1454.5q4 11.5 19 11.5h336q27 0 39 -18l239 -313q8 -11 4 -20t-16 -9h-240q-24 0 -45 18l-331 310q-9 9 -5 20.5z" />
<glyph unicode="a" horiz-adv-x="997" d="M35 274v31q0 85 50.5 143.5t131 84.5t184.5 26h160q10 0 16.5 7t6.5 18v37q0 38 -31.5 62t-83.5 24q-109 0 -168 -111q-6 -12 -18.5 -13t-22.5 7l-215 141q-19 14 0 43q47 82 123 135q122 84 301 84q216 0 334.5 -98t118.5 -285v-590q0 -20 -19 -20h-233q-8 0 -15.5 4.5 t-7.5 11.5v50q0 9 -6.5 12t-13.5 -4q-33 -34 -86.5 -54t-114.5 -20h-64q-150 0 -238.5 70t-88.5 204zM342 305q0 -78 80 -78h67q39 0 67 32t28 97q0 25 -33 25h-125q-84 0 -84 -76z" />
<glyph unicode="b" horiz-adv-x="1028" d="M86 20v1252q0 20 20 20h297q21 0 21 -20v-236q0 -81 -14 -125q69 56 151 56q187 0 299.5 -103.5t112.5 -279.5v-199q0 -198 -99.5 -291.5t-302.5 -93.5q-119 0 -190 74q-7 7 -15 4t-8 -12v-50q0 -16 -20 -16h-232q-20 0 -20 20zM424 344q0 -38 29 -61t75 -23 q49 0 76 22.5t27 61.5v281q0 37 -27 59.5t-76 22.5q-50 0 -77 -22t-27 -60v-281z" />
<glyph unicode="c" horiz-adv-x="937" d="M55 360v246q0 175 118.5 281t322.5 106q203 0 315 -112q60 -63 102 -172q4 -11 4 -19q0 -16 -14 -22l-225 -97q-25 -11 -37 17q-28 62 -59.5 93.5t-83.5 31.5q-50 0 -75.5 -23t-25.5 -63v-287q0 -40 25.5 -63t75.5 -23q52 0 83.5 31.5t59.5 93.5q12 27 37 16l225 -96 q14 -7 14 -22q0 -8 -4 -19q-26 -74 -69 -133q-116 -152 -348 -152q-204 0 -322.5 106t-118.5 281z" />
<glyph unicode="d" horiz-adv-x="1028" d="M55 385v199q0 176 112.5 279.5t299.5 103.5q82 0 151 -56q-14 44 -14 125v236q0 20 21 20h299q18 0 18 -20v-1252q0 -20 -18 -20h-234q-20 0 -20 16v50q0 9 -8 12t-15 -4q-71 -74 -190 -74q-203 0 -302.5 93.5t-99.5 291.5zM397 344q0 -39 27 -61.5t76 -22.5q46 0 75 23 t29 61v281q0 38 -27 60t-77 22q-49 0 -76 -22.5t-27 -59.5v-281z" />
<glyph unicode="e" horiz-adv-x="1003" d="M55 360v246q0 172 129.5 279.5t321.5 107.5q188 0 315 -110t127 -277v-164q0 -20 -18 -20h-504q-29 0 -29 -25v-39q0 -43 30.5 -68.5t82.5 -25.5q101 0 158 107q6 11 18.5 12.5t22.5 -6.5l213 -141q20 -12 0 -43q-41 -71 -103 -121q-123 -99 -313 -99q-200 0 -325.5 107 t-125.5 280zM397 608q0 -20 25 -20h199q28 0 28 24v29q0 42 -33 70t-92 28t-93 -28t-34 -74v-29z" />
<glyph unicode="f" horiz-adv-x="649" d="M25 606v240q0 20 18 20h57q27 0 27 21q11 189 132 306.5t319 117.5q86 0 165 -17q20 -5 20 -20q0 -4 -1 -8l-64 -238q-5 -15 -30 -12q-50 8 -99 8q-50 0 -77 -26.5t-27 -71.5v-39q0 -21 24 -21h134q20 0 20 -20v-240q0 -20 -20 -20h-134q-24 0 -24 -21v-545 q0 -20 -21 -20h-299q-18 0 -18 20v545q0 21 -29 21h-55q-18 0 -18 20z" />
<glyph unicode="g" horiz-adv-x="991" d="M47 -111q0 60 28.5 108t76.5 75q25 13 6 28q-52 42 -52 109q0 71 56 110q20 13 -2 29q-52 38 -82.5 98.5t-30.5 133.5v36q0 155 103 253t266 98q160 0 246 -70q6 -5 12 -2t6 10v43q0 8 5.5 13.5t12.5 5.5h222q18 0 18 -19v-375q0 -146 -89 -230.5t-243 -84.5h-147 q-25 0 -39 -17t-14 -44q0 -26 14 -43t39 -17h237q170 0 252 -59.5t82 -181.5v-48q0 -143 -97 -226t-257 -83h-268q-162 0 -261.5 84.5t-99.5 224.5v41zM354 -160q0 -34 19 -53.5t49 -19.5h240q30 0 47.5 20t17.5 55t-17.5 54.5t-47.5 19.5h-240q-30 0 -49 -20.5t-19 -55.5z M377 578q0 -46 35 -74.5t98 -28.5q58 0 91.5 27t33.5 76v36q0 45 -34.5 74t-90.5 29q-59 0 -96 -29.5t-37 -73.5v-36z" />
<glyph unicode="h" horiz-adv-x="1044" d="M86 20v1252q0 20 20 20h297q21 0 21 -20v-236q0 -81 -14 -125q69 56 151 56q187 0 297.5 -103.5t110.5 -279.5v-564q0 -20 -21 -20h-299q-18 0 -18 20v584q0 37 -27 59.5t-76 22.5t-76.5 -23.5t-27.5 -58.5v-584q0 -20 -21 -20h-297q-20 0 -20 20z" />
<glyph unicode="i" horiz-adv-x="514" d="M86 1198q0 68 50.5 115t119.5 47q71 0 121.5 -47t50.5 -115q0 -66 -50.5 -112t-121.5 -46q-73 0 -121.5 44.5t-48.5 113.5zM88 20v928q0 19 21 19h299q6 0 12 -5t6 -14v-928q0 -20 -18 -20h-299q-21 0 -21 20z" />
<glyph unicode="j" horiz-adv-x="509" d="M-98 -197q0 27 26 27q77 0 117.5 24.5t40.5 69.5v1024q0 19 20 19h300q6 0 12 -5t6 -14v-1028q0 -401 -500 -401q-22 0 -22 20v264zM84 1198q0 68 50.5 115t119.5 47q71 0 121.5 -47t50.5 -115q0 -66 -50.5 -112t-121.5 -46q-73 0 -121.5 44.5t-48.5 113.5z" />
<glyph unicode="k" horiz-adv-x="1028" d="M86 20v1252q0 20 20 20h297q21 0 21 -20v-492q0 -81 -14 -125l239 297q13 15 37 15h311q15 0 20 -11.5t-5 -21.5l-295 -316q-14 -17 -2 -36l336 -551q4 -6 4 -12q0 -4 -2 -9q-5 -10 -21 -10h-330q-22 0 -32 16l-199 346q-8 16 -25 3l-10 -9q-12 -9 -12 -30v-306 q0 -20 -16 -20h-302q-20 0 -20 20z" />
<glyph unicode="l" horiz-adv-x="509" d="M86 20v1252q0 20 23 20h297q18 0 18 -20v-1252q0 -20 -18 -20h-297q-23 0 -23 20z" />
<glyph unicode="m" horiz-adv-x="1509" d="M86 20v928q0 19 20 19h218q9 0 15.5 -6.5t6.5 -12.5v-49q0 -8 8 -9.5t13 3.5q80 74 213 74q114 0 192 -64q19 -16 37 0q76 64 227 64q183 0 290.5 -97t107.5 -266v-584q0 -20 -17 -20h-303q-18 0 -18 20v584q0 82 -80 82q-40 0 -63 -22t-23 -60v-584q0 -20 -21 -20h-299 q-18 0 -18 20v584q0 82 -82 82q-39 0 -62.5 -22t-23.5 -60v-584q0 -20 -21 -20h-297q-20 0 -20 20z" />
<glyph unicode="n" horiz-adv-x="1044" d="M86 20v928q0 19 20 19h218q9 0 15.5 -6.5t6.5 -12.5v-49q0 -8 7.5 -9.5t13.5 3.5q86 74 223 74q182 0 280.5 -93.5t98.5 -269.5v-584q0 -20 -21 -20h-299q-18 0 -18 20v584q0 37 -27 59.5t-76 22.5q-50 0 -77 -23t-27 -59v-584q0 -20 -21 -20h-297q-20 0 -20 20z" />
<glyph unicode="o" horiz-adv-x="1003" d="M55 360v246q0 173 125.5 280t325.5 107q198 0 320 -105.5t122 -281.5v-246q0 -174 -122.5 -280.5t-319.5 -106.5q-200 0 -325.5 107t-125.5 280zM397 330q0 -38 29.5 -62t79.5 -24q44 0 72 24.5t28 61.5v307q0 37 -28 61.5t-72 24.5q-50 0 -79.5 -25t-29.5 -61v-307z" />
<glyph unicode="p" horiz-adv-x="1028" d="M86 -305v1251q0 21 20 21h232q8 0 14 -5t6 -12v-49q0 -9 8 -12t15 4q71 74 190 74q203 0 302.5 -93.5t99.5 -291.5v-199q0 -176 -112.5 -279.5t-299.5 -103.5q-67 0 -117 29q-9 6 -14.5 2t-5.5 -15v-321q0 -11 -7 -16t-14 -5h-297q-20 0 -20 21zM424 342q0 -38 27 -60 t77 -22q49 0 76 22.5t27 59.5v281q0 39 -27 61.5t-76 22.5q-46 0 -75 -23t-29 -61v-281z" />
<glyph unicode="q" horiz-adv-x="1028" d="M55 383v199q0 198 99.5 291.5t302.5 93.5q119 0 190 -74q7 -7 15 -4t8 12v49q0 7 6 12t14 5h232q20 0 20 -21v-1251q0 -21 -20 -21h-297q-7 0 -14 5t-7 16v321q0 11 -5.5 15t-14.5 -2q-50 -29 -117 -29q-187 0 -299.5 103.5t-112.5 279.5zM397 342q0 -37 27 -59.5 t76 -22.5q50 0 77 22t27 60v281q0 38 -29 61t-75 23q-49 0 -76 -22.5t-27 -61.5v-281z" />
<glyph unicode="r" horiz-adv-x="659" d="M86 20v928q0 19 20 19h220q20 0 20 -21v-67q0 -7 8 -10t13 3q35 45 93 70t126 25h45q20 0 20 -23v-276q0 -13 -8 -20t-22 -3q-47 12 -101 12q-42 0 -69 -28t-27 -72v-537q0 -20 -21 -20h-297q-20 0 -20 20z" />
<glyph unicode="s" horiz-adv-x="919" d="M35 172q-10 14 -9.5 25t9.5 18l182 129q10 8 22.5 7t18.5 -13q27 -51 75.5 -79t102.5 -28h60q31 0 48 15t17 41q0 18 -9 30.5t-26.5 19t-32 9.5t-36.5 6t-29 4q-160 28 -226 57q-142 61 -157 209q-2 19 -2 40q0 157 103.5 244t279.5 87h43q195 0 319 -100q55 -45 86 -98 q10 -14 10 -24.5t-10 -18.5l-182 -129q-10 -8 -22.5 -6.5t-18.5 12.5q-27 51 -75.5 78.5t-102.5 27.5h-47q-32 0 -49 -15t-17 -40q0 -11 4 -20.5t13.5 -16t16.5 -11t23.5 -9t22.5 -6t24.5 -4.5t20.5 -3q11 -2 32 -6q71 -13 108 -21.5t94.5 -30.5t86.5 -49.5t52 -77 t23 -114.5q0 -161 -104.5 -249.5t-289.5 -88.5h-47q-197 0 -321 103q-49 40 -84 96z" />
<glyph unicode="t" horiz-adv-x="679" d="M-25 705v151l271 258q14 14 37 14h157q21 0 21 -18v-121q0 -22 28 -22h138q18 0 18 -19v-243q0 -19 -18 -19h-138q-28 0 -28 -22v-254q0 -129 125 -129h35q24 0 24 -23v-254q0 -24 -33 -24h-94q-189 0 -291 103t-102 286v295q0 22 -29 22h-102q-19 0 -19 19z" />
<glyph unicode="u" horiz-adv-x="1044" d="M76 362v584q0 21 18 21h299q21 0 21 -21v-584q0 -38 25.5 -59.5t74.5 -21.5q50 0 78.5 22.5t28.5 58.5v584q0 21 18 21h301q18 0 18 -21v-928q0 -18 -18 -18h-219q-9 0 -17 6t-8 12v50q0 8 -6 9.5t-12 -3.5q-86 -74 -223 -74q-182 0 -280.5 93t-98.5 269z" />
<glyph unicode="v" horiz-adv-x="948" d="M-41 940q-3 8 -3 13q0 14 19 14h322q15 0 22 -17l130 -420q26 -88 30 -127q3 16 8 37.5t12.5 48.5t10.5 41l115 418q5 19 28 19h318q21 0 21 -15q0 -5 -3 -12l-373 -924q-5 -16 -24 -16h-242q-18 0 -24 16z" />
<glyph unicode="w" horiz-adv-x="1292" d="M-31 942q-1 5 -1 9q0 16 20 16h291q16 0 20 -19l88 -387l23 -129q4 72 16 129l82 389q3 17 18 17h240q17 0 22 -19l86 -391q5 -24 10 -55.5t7 -50.5l2 -19q8 72 18 125l82 391q4 19 25 19h287q13 1 17 -7q2 -4 2 -10q0 -4 -1 -8l-297 -928q-6 -14 -22 -14h-218 q-16 0 -20 18l-96 414l-21 123q-6 -68 -20 -123l-105 -416q-3 -16 -20 -16h-221q-15 0 -21 14z" />
<glyph unicode="x" horiz-adv-x="976" d="M-50 9q-2 3 -2 7q0 6 5 13l319 426q14 17 14 28.5t-14 30.5l-317 424q-8 10 -3.5 19.5t17.5 9.5h338q26 0 37 -19l125 -186q19 -29 39 0l125 186q11 19 37 19h338q13 0 17.5 -9.5t-3.5 -19.5l-320 -426q-20 -25 0 -53l322 -430q5 -7 5 -13q1 -3 -1 -7q-4 -9 -18 -9h-338 q-27 0 -37 18l-129 193q-18 26 -35 0l-129 -193q-10 -18 -37 -18h-338q-13 0 -17 9z" />
<glyph unicode="y" horiz-adv-x="1044" d="M76 383v563q0 21 18 21h299q21 0 21 -21v-584q0 -38 25.5 -59.5t74.5 -21.5q50 0 78.5 23t28.5 58v584q0 21 18 21h301q18 0 18 -21v-1040q0 -184 -112.5 -285.5t-331.5 -101.5q-201 0 -330 123q-50 50 -82 104q-20 30 0 43l213 141q10 8 22.5 7t18.5 -13 q56 -106 158 -106q52 0 79.5 24t27.5 68v106q0 11 -7 15t-16 -2q-50 -29 -117 -29q-186 0 -295.5 103t-109.5 280z" />
<glyph unicode="z" horiz-adv-x="927" d="M2 10q-1 3 -1 6q0 7 5 15l369 628q7 11 3 19t-18 8h-317q-18 0 -18 21v241q0 19 18 19h834q14 0 18 -10t-2 -19l-371 -631q-7 -12 -3 -19t18 -7h354q18 0 18 -19v-242q0 -20 -18 -20h-868q-17 0 -21 10z" />
<glyph unicode="{" horiz-adv-x="897" d="M82 444v258q0 27 39 27q145 0 145 78v258q0 102 38 181t105 128t154 74t189 25q34 0 34 -29v-234q0 -9 -7 -15.5t-17 -6.5q-75 0 -117.5 -33.5t-42.5 -89.5v-277q0 -74 -24.5 -124.5t-65.5 -73.5q-31 -16 0 -33q41 -23 65.5 -74t24.5 -125v-276q0 -56 42.5 -89.5 t117.5 -33.5q10 0 17 -6.5t7 -15.5v-234q0 -29 -34 -29q-102 0 -189 25t-154 74t-105 128t-38 181v258q0 78 -145 78q-39 0 -39 26z" />
<glyph unicode="|" horiz-adv-x="532" d="M135 -512v2048h262v-2048h-262z" />
<glyph unicode="}" horiz-adv-x="897" d="M111 -63q0 9 7 15.5t17 6.5q75 0 117.5 33.5t42.5 89.5v276q0 74 24.5 125t65.5 74q31 17 0 33q-41 23 -65.5 73.5t-24.5 124.5v277q0 56 -42.5 89.5t-117.5 33.5q-10 0 -17 6.5t-7 15.5v234q0 29 34 29q102 0 189 -25t154 -74t105 -128t38 -181v-258q0 -78 145 -78 q39 0 39 -27v-258q0 -26 -39 -26q-145 0 -145 -78v-258q0 -102 -38 -181t-105 -128t-154 -74t-189 -25q-34 0 -34 29v234z" />
<glyph unicode="~" d="M18 506q69 98 142.5 149.5t181.5 51.5q117 0 231 -62q113 -67 193 -67q14 0 27 2.5t25 9t21 12t20 17t17 17.5t16.5 21l14 20t14 21.5t11.5 18.5l170 -201q-70 -105 -145 -153t-179 -48q-130 0 -233 62q-101 67 -191 67q-13 0 -25.5 -3t-22.5 -7t-21 -12t-18.5 -13.5 t-17.5 -17.5t-15 -17.5t-13.5 -19t-11 -17.5t-11 -17.5t-8.5 -14.5z" />
<glyph unicode="&#xa0;" />
<glyph unicode="&#xa1;" horiz-adv-x="575" d="M102 821q0 67 57.5 119.5t127.5 52.5q75 0 130.5 -51.5t55.5 -120.5q0 -70 -55.5 -120t-130.5 -50q-70 0 -127.5 52.5t-57.5 117.5zM119 258l43 320q3 16 18 16h215q16 0 19 -16l45 -322v-547q0 -20 -21 -20h-301q-18 0 -18 20v549z" />
<glyph unicode="&#xa2;" d="M66 438v246q0 175 113.5 281t309.5 106q23 0 23 21v96q0 20 20 20h148q18 0 18 -20v-98q0 -19 21 -19q216 -12 321 -170q33 -47 58 -115q11 -30 -11 -41l-225 -96q-25 -11 -37 17q-23 52 -46.5 81t-59.5 39q-21 7 -21 -18v-414q0 -22 19 -18q36 10 60.5 40t47.5 81 q12 27 37 16l225 -96q22 -11 11 -41q-42 -108 -103 -172q-98 -104 -276 -113q-21 0 -21 -20v-92q0 -21 -18 -21h-148q-20 0 -20 21v94q0 18 -18 18q-199 0 -313.5 106t-114.5 281zM399 418q0 -86 95 -86q18 0 18 18v422q0 19 -16 19q-97 0 -97 -86v-287z" />
<glyph unicode="&#xa3;" d="M-27 20v263q0 18 21 18h164q92 16 92 84v96q0 23 -29 23h-45q-18 0 -18 18v264q0 19 18 19h45q29 0 29 22v78q0 191 112.5 302.5t335.5 111.5q114 0 196 -34t146 -109q44 -52 86 -132q14 -29 -4 -38l-254 -117q-23 -12 -39 16q-32 59 -66 87t-79 28q-48 0 -73 -27 t-25 -67v-99q0 -22 24 -22h138q20 0 20 -19v-264q0 -18 -20 -18h-138q-24 0 -24 -23v-82q0 -33 -16.5 -62t-41.5 -44q36 8 80 8h414q18 0 18 -18v-263q0 -20 -18 -20h-1028q-21 0 -21 20z" />
<glyph unicode="&#xa4;" horiz-adv-x="1292" d="M94 360q48 44 144 136q-66 113 -66 229q0 123 66 229q-21 21 -45 44t-53 50.5t-46 43.5q29 27 81 80.5t63 64.5q98 -94 143 -139q108 65 233 65q134 0 234 -65q98 94 143 139q29 -27 81 -80.5t63 -64.5q-21 -21 -45 -44t-53 -50.5t-46 -43.5q68 -110 68 -229 q0 -114 -68 -229q48 -44 144 -136q-11 -11 -63 -64.5t-81 -80.5q-23 24 -70 69.5t-71 69.5q-107 -65 -236 -65q-132 0 -233 65q-45 -45 -143 -139q-11 11 -63 64.5t-81 80.5zM377 727q0 -97 69.5 -167.5t167.5 -70.5q100 0 170 70t70 168q0 99 -72 166.5t-166 67.5 q-101 0 -170 -68.5t-69 -165.5z" />
<glyph unicode="&#xa5;" d="M-17.5 1282q4.5 10 17.5 10h334q26 0 37 -20l161 -291q11 -18 25 -18t23 18l163 289q11 22 41 22h332q15 0 20.5 -9t-1.5 -21l-289 -478q-8 -12 -3.5 -21t19.5 -9h193q16 0 16 -21v-207q0 -18 -16 -18h-301q-27 0 -27 -23v-53q0 -22 27 -22h301q16 0 16 -19v-211 q0 -18 -16 -18h-301q-27 0 -27 -23v-119q0 -20 -18 -20h-301q-21 0 -21 20v119q0 23 -25 23h-299q-18 0 -18 18v211q0 19 18 19h299q25 0 25 22v53q0 9 -8 16t-17 7h-299q-18 0 -18 18v207q0 21 18 21h195q15 0 19.5 9t-3.5 21l-290 478q-6 10 -1.5 20z" />
<glyph unicode="&#xa6;" horiz-adv-x="532" d="M135 -326v717h262v-717h-262zM135 754v716h262v-716h-262z" />
<glyph unicode="&#xa7;" d="M63 -209q-13 25 7 35l254 115q17 9 28 -13q54 -110 148 -110h80q47 0 74.5 25t27.5 67q0 31 -20 55t-53.5 41t-77 33t-92 33.5t-97 38.5t-92 52t-77 70.5t-53.5 98t-20 129.5q0 135 62 207q14 17 2 32q-64 90 -64 209q0 187 121 294.5t324 107.5h35q230 0 352 -146 q43 -52 80 -133q12 -28 -13 -39l-258 -119q-12 -5 -21.5 -0.5t-12.5 15.5q-43 123 -127 123h-35q-45 0 -74 -25t-29 -61q0 -34 32 -64t83.5 -54.5t113.5 -52t124 -65.5t113.5 -85t83.5 -119.5t32 -161.5q0 -112 -47 -195q-14 -22 -2 -39q45 -76 45 -180q0 -177 -121.5 -285 t-318.5 -108h-84q-121 0 -207 37t-152 120q-38 46 -74 117zM406 465q0 -15 6.5 -29t22 -26t31 -21.5t42.5 -20.5t47.5 -19t55.5 -21t57 -21q20 -9 26 8q4 12 4 23q0 17 -6.5 31.5t-22 28t-30 24t-42 23.5t-46 21t-54.5 23t-55 23q-23 9 -30 -8q-6 -15 -6 -39z" />
<glyph unicode="&#xa8;" horiz-adv-x="1107" d="M141 1284q0 68 50.5 115t119.5 47q71 0 121.5 -47t50.5 -115q0 -66 -50.5 -112t-121.5 -46q-73 0 -121.5 44.5t-48.5 113.5zM563 1284q0 68 51 115t121 47t120 -46.5t50 -115.5t-48.5 -113.5t-121.5 -44.5t-122.5 45t-49.5 113z" />
<glyph unicode="&#xa9;" horiz-adv-x="1519" d="M139 293v541q0 169 118.5 271.5t313.5 102.5h377q193 0 312.5 -102.5t119.5 -271.5v-541q0 -169 -119.5 -272t-312.5 -103h-377q-196 0 -314 102t-118 273zM342 293q0 -79 61.5 -129.5t167.5 -50.5h377q105 0 165.5 50t60.5 130v541q0 79 -61.5 129.5t-164.5 50.5h-377 q-106 0 -167.5 -50.5t-61.5 -129.5v-541zM461 475v182q0 121 86.5 197t224.5 76q146 0 227 -84q44 -44 68 -103q9 -17 -8 -24l-146 -66q-16 -6 -22 9q-18 43 -50 66.5t-67 23.5q-42 0 -73 -25t-31 -61v-197q0 -36 31 -61t73 -25q35 0 67 24.5t50 67.5q6 14 22 8l146 -67 q13 -7 8 -23q-27 -70 -80 -117q-80 -71 -215 -71q-138 0 -224.5 74.5t-86.5 195.5z" />
<glyph unicode="&#xaa;" horiz-adv-x="749" d="M55 797v22q0 92 75 142.5t189 50.5h117q17 0 17 16v12q0 25 -18.5 40.5t-51.5 15.5q-107 0 -193 -39q-19 -9 -28 6l-82 147q-11 19 10 31q63 32 100 43q86 27 195 27q311 0 311 -277v-428q0 -14 -12 -14h-170q-16 0 -16 12v35q0 6 -5 8t-10 -2q-50 -53 -145 -53h-47 q-107 0 -171.5 53.5t-64.5 151.5zM276 813q0 -57 58 -57h49q28 0 49 26t21 74q0 16 -25 16h-90q-29 0 -45.5 -15.5t-16.5 -43.5z" />
<glyph unicode="&#xab;" horiz-adv-x="1280" d="M80 508v147q0 24 18 35l537 344q11 8 20 2.5t9 -18.5v-238q0 -11 6.5 -14.5t15.5 2.5l414 266q10 8 19 3t9 -19v-279q0 -23 -18 -32l-215 -109q-12 -6 -11.5 -16.5t11.5 -16.5l215 -108q18 -9 18 -33v-279q0 -13 -9 -18t-19 2l-416 266q-8 5 -14 1.5t-6 -13.5v-238 q0 -13 -9 -18.5t-20 2.5l-537 344q-18 11 -18 35zM418.5 581.5q0.5 -10.5 11.5 -16.5l119 -59q12 -6 20.5 -0.5t8.5 22.5v107q0 18 -8 24.5t-19 -0.5l-121 -61q-12 -6 -11.5 -16.5z" />
<glyph unicode="&#xac;" d="M66 608v211q0 19 18 19h948q21 0 21 -19v-2v-594q0 -18 -21 -18h-225q-21 0 -21 18v346v2q0 19 -20 19h-682q-18 0 -18 18z" />
<glyph unicode="&#xad;" horiz-adv-x="645" d="M61 344v279q0 20 19 20h483q21 0 21 -20v-279q0 -18 -21 -18h-483q-19 0 -19 18z" />
<glyph unicode="&#xae;" horiz-adv-x="972" d="M74 901v41q0 158 111 253t296 95h8q185 0 297.5 -95t112.5 -253v-41q0 -158 -112.5 -253t-297.5 -95h-8q-185 0 -296 95t-111 253zM135 901q0 -130 94 -209.5t252 -79.5h8q159 0 254 79.5t95 209.5v41q0 130 -95 209.5t-254 79.5h-8q-158 0 -252 -79.5t-94 -209.5v-41z M348 758v344q0 20 19 20h145q64 0 101.5 -35t37.5 -94v-8q0 -32 -19 -58.5t-44 -37.5q-13 -4 -4 -19l59 -104q8 -12 2.5 -20.5t-20.5 -8.5h-37q-10 0 -17 13l-51 108q-6 12 -20 12h-62q-26 0 -26 -20v-92q0 -21 -19 -21h-26q-19 0 -19 21zM412 948q0 -11 5 -15.5t21 -4.5h74 q35 0 54.5 17t19.5 48v6q0 30 -19 49t-55 19h-74q-26 0 -26 -23v-96z" />
<glyph unicode="&#xaf;" horiz-adv-x="1107" d="M252 1159v262q0 21 20 21h584q21 0 21 -21v-262q0 -20 -21 -20h-584q-20 0 -20 20z" />
<glyph unicode="&#xb0;" horiz-adv-x="610" d="M59 918v178q0 98 68 160.5t174 62.5q114 0 182 -58t68 -155v-188q0 -97 -68 -155t-182 -58q-109 0 -175.5 58t-66.5 155zM252 918q0 -19 15 -31.5t38 -12.5t38 12.5t15 31.5v188q0 19 -15 31t-38 12t-38 -12t-15 -31v-188z" />
<glyph unicode="&#xb1;" d="M66 18v207q0 21 18 21h948q21 0 21 -21v-207q0 -18 -21 -18h-948q-18 0 -18 18zM66 725v207q0 20 18 20h315q25 0 25 21v297q0 20 20 20h224q18 0 18 -20v-297q0 -21 27 -21h319q21 0 21 -20v-207q0 -18 -21 -18h-319q-27 0 -27 -23v-276q0 -19 -18 -19h-224 q-20 0 -20 19v276q0 10 -7.5 16.5t-17.5 6.5h-315q-18 0 -18 18z" />
<glyph unicode="&#xb2;" horiz-adv-x="673" d="M25 1087q48 94 106 134q73 51 178 51h53q131 0 214 -79.5t83 -203.5q0 -95 -77 -151q-43 -31 -98 -45.5t-99 -14.5q-30 0 -40.5 -4.5t-10.5 -15.5v-13q0 -10 16 -10h283q14 0 14 -16v-187q0 -16 -14 -16h-561q-15 0 -15 16v130q0 50 8.5 91.5t21 69.5t34 50.5t41 36 t48.5 23.5t50 15t51 10q29 5 44.5 9t31.5 15t16 26q0 34 -41 34h-45q-19 0 -32.5 -12.5t-32.5 -42.5q-13 -18 -27 -12l-196 90q-13 3 -4 22z" />
<glyph unicode="&#xb3;" horiz-adv-x="673" d="M-5 640q-1 7 5 13l199 90q13 10 26 -12q20 -39 40 -57.5t48 -18.5h23q47 0 47 37v43q0 15 -9 21t-38 6h-156q-14 0 -14 12v189q0 12 14 12h156q47 0 47 26v43q0 33 -47 33h-23q-28 0 -48 -19t-40 -59q-14 -18 -26 -12l-199 90q-12 9 0 27q38 74 78 117q83 86 221 86h37 q139 0 223 -75t84 -200v-22q0 -65 -33 -109q-10 -9 -9.5 -13.5t9.5 -10.5q33 -38 33 -138v-37q0 -126 -83.5 -200t-223.5 -74h-37q-138 0 -217 82q-43 43 -82 119q-4 4 -5 11z" />
<glyph unicode="&#xb4;" horiz-adv-x="1107" d="M342 1115q-4 9 4 20l240 313q12 18 39 18h336q15 0 19 -11.5t-5 -20.5l-332 -310q-21 -18 -45 -18h-240q-12 0 -16 9z" />
<glyph unicode="&#xb5;" horiz-adv-x="1028" d="M68 -307v1253q0 21 18 21h299q21 0 21 -21v-584q0 -38 25.5 -59.5t74.5 -21.5q50 0 78 22.5t28 58.5v584q0 21 19 21h301q18 0 18 -21v-928q0 -18 -18 -18h-219q-9 0 -17 6t-8 12v50q0 8 -6 9.5t-12 -3.5q-86 -74 -224 -74q-23 0 -31.5 -8t-8.5 -29v-270q0 -21 -19 -21 h-299q-20 0 -20 21z" />
<glyph unicode="&#xb6;" horiz-adv-x="1449" d="M84 545v342q0 186 121.5 295.5t322.5 109.5h789q18 0 18 -20v-1712q0 -21 -18 -21h-303q-21 0 -21 21v1409q0 22 -24 22h-95q-26 0 -26 -22v-1409q0 -21 -19 -21h-301q-20 0 -20 21v581q0 21 -25 21h-32q-186 0 -276.5 103.5t-90.5 279.5z" />
<glyph unicode="&#xb7;" d="M373 510q0 71 55 120.5t131 49.5q70 0 128 -51.5t58 -118.5q0 -68 -56 -118t-128 -50q-76 0 -132 48.5t-56 119.5z" />
<glyph unicode="&#xb8;" horiz-adv-x="1107" d="M264 -287q0 10 7 16.5t18 6.5h133q33 0 33 24q0 25 -33 25h-111q-12 0 -16.5 8t0.5 17l104 219h289l-35 -76q-8 -20 4 -25q43 -20 68 -61.5t25 -91.5v-15q0 -107 -78.5 -176t-208.5 -69h-178q-21 0 -21 20v178z" />
<glyph unicode="&#xb9;" horiz-adv-x="673" d="M18 993q-16 9 0 19l277 248q13 10 27 10h135q12 0 12 -15v-493q0 -14 20 -14h123q13 0 13 -13v-209q0 -12 -13 -12h-546q-13 0 -13 12v209q0 5 4.5 9t8.5 4h122q17 0 17 14v88q0 8 -19 8q-12 0 -18 4z" />
<glyph unicode="&#xba;" horiz-adv-x="700" d="M29 862v166q0 126 90 204.5t237 78.5q140 0 229 -79.5t89 -203.5v-166q0 -127 -87.5 -203.5t-230.5 -76.5q-150 0 -238.5 76t-88.5 204zM291 862q0 -23 17.5 -37t47.5 -14q26 0 43 15t17 36v166q0 22 -17 35.5t-43 13.5q-30 0 -47.5 -14t-17.5 -35v-166z" />
<glyph unicode="&#xbb;" horiz-adv-x="1280" d="M152 145v279q0 24 18 33l215 108q11 6 11.5 16.5t-11.5 16.5l-215 109q-18 9 -18 32v279q0 14 9 19t19 -3l414 -266q9 -6 15.5 -2.5t6.5 14.5v238q0 13 9 18.5t20 -2.5l537 -344q18 -11 18 -35v-147q0 -24 -18 -35l-537 -344q-11 -8 -20 -2.5t-9 18.5v238q0 10 -6 13.5 t-14 -1.5l-416 -266q-10 -7 -19 -2t-9 18zM702 528q0 -17 8.5 -22.5t20.5 0.5l119 59q11 6 11.5 16.5t-11.5 16.5l-121 61q-11 7 -19 0.5t-8 -24.5v-107z" />
<glyph unicode="&#xbc;" horiz-adv-x="1732" d="M82 993q-16 9 0 19l276 248q13 10 27 10h135q12 0 12 -15v-493q0 -14 21 -14h123q12 0 12 -13v-209q0 -12 -12 -12h-547q-12 0 -12 12v209q0 5 4 9t8 4h123q16 0 16 14v88q0 8 -18 8q-13 0 -19 4zM481 29l594 1243q10 20 33 20h162q15 0 19.5 -8t-1.5 -20l-594 -1244 q-10 -20 -30 -20h-166q-11 0 -16 9.5t-1 19.5zM920 63v168l376 496q8 10 25 10h195q10 0 10 -12v-428q0 -5 4.5 -9.5t11.5 -4.5h84q12 0 12 -13v-207q0 -12 -12 -12h-84q-16 0 -16 -16v-127q0 -12 -10 -12h-238q-12 0 -12 12v127q0 6 -4.5 11t-10.5 5h-319q-12 0 -12 12z M1194 266q-7 -10 6 -10h72q14 0 14 8v105q0 41 2 61l-6 2q-9 -25 -31 -65z" />
<glyph unicode="&#xbd;" horiz-adv-x="1732" d="M82 993q-16 9 0 19l276 248q13 10 27 10h135q12 0 12 -15v-493q0 -14 21 -14h123q12 0 12 -13v-209q0 -12 -12 -12h-547q-12 0 -12 12v209q0 5 4 9t8 4h123q16 0 16 14v88q0 8 -18 8q-13 0 -19 4zM481 29l594 1243q10 20 33 20h162q15 0 19.5 -8t-1.5 -20l-594 -1244 q-10 -20 -30 -20h-166q-11 0 -16 9.5t-1 19.5zM1012 571q48 94 106 134q73 51 178 51h54q131 0 214 -79.5t83 -203.5q0 -94 -78 -151q-43 -31 -98 -45.5t-99 -14.5q-30 0 -40.5 -4.5t-10.5 -15.5v-13q0 -10 16 -10h283q14 0 14 -16v-187q0 -16 -14 -16h-561q-15 0 -15 16 v129q0 58 10 104t30.5 76.5t42 51t54.5 33.5t57 19.5t60 12.5q22 4 33.5 7t28 8.5t24 14t7.5 20.5q0 34 -41 34h-45q-19 0 -33 -12.5t-33 -42.5q-13 -18 -27 -12l-196 90q-13 3 -4 22z" />
<glyph unicode="&#xbe;" horiz-adv-x="1732" d="M24 640q-1 7 7 13l196 90q13 8 29 -12q20 -40 39 -58t47 -18h23q49 0 49 37v43q0 14 -10 20.5t-39 6.5h-156q-14 0 -14 12v187q0 12 14 12h156q49 0 49 26v45q0 33 -49 33h-23q-27 0 -46 -19t-40 -59q-18 -18 -27 -12l-198 90q-14 9 -2 27q39 76 82 119q81 84 219 84h35 q140 0 224.5 -75.5t84.5 -199.5v-22q0 -62 -35 -109q-9 -9 -8.5 -13.5t8.5 -10.5q35 -40 35 -138v-37q0 -125 -84.5 -199.5t-224.5 -74.5h-35q-134 0 -211 74q-46 43 -90 127q-4 4 -5 11zM481 29l594 1243q10 20 33 20h162q15 0 19.5 -8t-1.5 -20l-594 -1244 q-10 -20 -30 -20h-166q-11 0 -16 9.5t-1 19.5zM920 63v168l376 496q8 10 25 10h195q10 0 10 -12v-428q0 -5 4.5 -9.5t11.5 -4.5h84q12 0 12 -13v-207q0 -12 -12 -12h-84q-16 0 -16 -16v-127q0 -12 -10 -12h-238q-12 0 -12 12v127q0 6 -4.5 11t-10.5 5h-319q-12 0 -12 12z M1194 266q-7 -10 6 -10h72q14 0 14 8v105q0 41 2 61l-6 2q-9 -25 -31 -65z" />
<glyph unicode="&#xbf;" horiz-adv-x="1052" d="M57 55q0 120 45 188t121 105q31 16 80.5 33.5t78 28.5t51 33t22.5 53v75q0 23 24 23h256q33 0 33 -33v-110q0 -95 -42.5 -151.5t-115.5 -92.5q-25 -13 -73 -33t-72 -31.5t-45 -34.5t-21 -53q0 -36 29.5 -61t71.5 -25h75q39 0 78.5 27t57.5 70q9 22 18.5 29t32.5 -1 l223 -106q33 -16 14 -58q-43 -87 -108 -149q-123 -111 -316 -111h-75q-198 0 -320.5 107t-122.5 278zM426 821q0 67 57 119.5t127 52.5q75 0 131 -51.5t56 -120.5q0 -70 -55.5 -120t-131.5 -50q-70 0 -127 52.5t-57 117.5z" />
<glyph unicode="&#xc0;" horiz-adv-x="1073" d="M-23 27l429 1251q6 14 20 14h223q14 0 19 -14l428 -1251q10 -27 -19 -27h-321q-13 0 -19 14l-53 154q-6 14 -27 14h-245q-19 0 -25 -14l-55 -154q-6 -14 -19 -14h-315q-14 0 -19.5 7.5t-1.5 19.5zM91.5 1733q4.5 12 19.5 12h335q23 0 39 -19l220 -272q7 -10 3 -19.5 t-16 -9.5h-239q-23 0 -45 19l-312 268q-9 9 -4.5 21zM457 442q-2 -8 3.5 -13t16.5 -5h119q22 0 18 18l-32 160q-11 54 -21 117t-14 99l-4 36h-6q-14 -131 -43 -252z" />
<glyph unicode="&#xc1;" horiz-adv-x="1073" d="M-23 27l429 1251q6 14 20 14h223q14 0 19 -14l428 -1251q10 -27 -19 -27h-321q-13 0 -19 14l-53 154q-6 14 -27 14h-245q-19 0 -25 -14l-55 -154q-6 -14 -19 -14h-315q-14 0 -19.5 7.5t-1.5 19.5zM373 1434.5q-4 9.5 4 19.5l219 272q16 19 39 19h336q15 0 19 -12t-5 -21 l-311 -268q-22 -19 -45 -19h-240q-12 0 -16 9.5zM457 442q-2 -8 3.5 -13t16.5 -5h119q22 0 18 18l-32 160q-11 54 -21 117t-14 99l-4 36h-6q-14 -131 -43 -252z" />
<glyph unicode="&#xc2;" horiz-adv-x="1073" d="M-23 27l429 1251q6 14 20 14h223q14 0 19 -14l428 -1251q10 -27 -19 -27h-321q-13 0 -19 14l-53 154q-6 14 -27 14h-245q-19 0 -25 -14l-55 -154q-6 -14 -19 -14h-315q-14 0 -19.5 7.5t-1.5 19.5zM201 1420.5q-4 9.5 4 19.5l239 313q13 19 39 19h111q26 0 39 -19 l239 -313q8 -10 4 -19.5t-16 -9.5h-213q-25 0 -41 25l-45 75q-7 13 -22 13t-23 -13l-45 -75q-16 -25 -41 -25h-213q-12 0 -16 9.5zM457 442q-2 -8 3.5 -13t16.5 -5h119q22 0 18 18l-32 160q-11 54 -21 117t-14 99l-4 36h-6q-14 -131 -43 -252z" />
<glyph unicode="&#xc3;" horiz-adv-x="1073" d="M-23 27l429 1251q6 14 20 14h223q14 0 19 -14l428 -1251q10 -27 -19 -27h-321q-13 0 -19 14l-53 154q-6 14 -27 14h-245q-19 0 -25 -14l-55 -154q-6 -14 -19 -14h-315q-14 0 -19.5 7.5t-1.5 19.5zM176 1550q94 181 256 181q49 0 87 -16t64.5 -32t49.5 -16q58 0 92 51 q14 25 33 8l133 -104q17 -13 8 -31q-93 -164 -268 -164q-42 0 -79.5 17.5t-68 35t-53.5 17.5q-54 0 -80 -47q-14 -25 -37 -10l-131 86q-14 11 -6 24zM457 442q-2 -8 3.5 -13t16.5 -5h119q22 0 18 18l-32 160q-11 54 -21 117t-14 99l-4 36h-6q-14 -131 -43 -252z" />
<glyph unicode="&#xc4;" horiz-adv-x="1073" d="M-23 27l429 1251q6 14 20 14h223q14 0 19 -14l428 -1251q10 -27 -19 -27h-321q-13 0 -19 14l-53 154q-6 14 -27 14h-245q-19 0 -25 -14l-55 -154q-6 -14 -19 -14h-315q-14 0 -19.5 7.5t-1.5 19.5zM190 1589q0 64 44 107t106 43q61 0 104 -44t43 -106t-42.5 -103.5 t-104.5 -41.5t-106 41.5t-44 103.5zM457 442q-2 -8 3.5 -13t16.5 -5h119q22 0 18 18l-32 160q-11 54 -21 117t-14 99l-4 36h-6q-14 -131 -43 -252zM588 1589q0 63 42 106.5t105 43.5q61 0 105.5 -44.5t44.5 -105.5q0 -62 -44 -103.5t-106 -41.5t-104.5 42t-42.5 103z" />
<glyph unicode="&#xc5;" horiz-adv-x="1073" d="M-23 27l388 1132q6 21 -11 35q-80 64 -80 174v59q0 103 72.5 166.5t190.5 63.5q120 0 191 -62.5t71 -167.5v-59q0 -113 -80 -174q-19 -13 -12 -31l389 -1136q10 -27 -19 -27h-321q-13 0 -19 14l-53 154q-6 14 -27 14h-245q-19 0 -25 -14l-55 -154q-6 -14 -19 -14h-315 q-14 0 -19.5 7.5t-1.5 19.5zM457 442q-2 -8 3.5 -13t16.5 -5h119q22 0 18 18l-32 160q-11 54 -21 117t-14 99l-4 36h-6q-14 -131 -43 -252zM489 1368q0 -17 13 -28t35 -11q20 0 32.5 11t12.5 28v59q0 19 -12.5 31t-32.5 12q-21 0 -34.5 -12.5t-13.5 -30.5v-59z" />
<glyph unicode="&#xc6;" horiz-adv-x="1478" d="M-215.5 9.5q-5.5 9.5 2.5 21.5l815 1245q10 16 37 16h780q21 0 21 -20v-262q0 -19 -21 -19h-497q-27 0 -27 -22v-142q0 -12 5.5 -17t21.5 -5h407q21 0 21 -19v-264q0 -18 -21 -18h-407q-27 0 -27 -23v-157q0 -12 5.5 -17.5t21.5 -5.5h497q21 0 21 -18v-263q0 -20 -21 -20 h-844q-20 0 -20 20v218q0 9 -7.5 15.5t-19.5 6.5h-192q-24 0 -35 -20l-141 -224q-10 -16 -37 -16h-318q-15 0 -20.5 9.5zM455.5 527q3.5 -7 15.5 -7h66q18 0 18 21v127q0 23 2.5 57t4.5 57l3 23h-6q-25 -84 -45 -129l-57 -133q-5 -9 -1.5 -16z" />
<glyph unicode="&#xc7;" horiz-adv-x="1099" d="M70 358v576q0 175 119.5 280t324.5 105h141q207 0 324 -123q51 -53 104 -152q14 -29 -4 -38l-254 -117q-23 -12 -39 16q-64 115 -149 115h-123q-51 0 -79.5 -23.5t-28.5 -62.5v-576q0 -39 28.5 -62.5t79.5 -23.5h123q85 0 149 115q16 28 39 16l254 -116q19 -9 4 -39 q-42 -79 -86 -129q-106 -127 -276 -144q-25 -2 -35 -22q-8 -20 4 -25q42 -20 67 -61.5t25 -91.5v-15q0 -108 -78 -176.5t-208 -68.5h-179q-20 0 -20 20v178q0 10 7 16.5t18 6.5h133q32 0 32 24q0 25 -32 25h-111q-12 0 -16.5 8t0.5 17l69 147q12 24 -10 29 q-151 31 -234 128.5t-83 243.5z" />
<glyph unicode="&#xc8;" horiz-adv-x="1030" d="M95.5 1733q4.5 12 19.5 12h336q22 0 38 -19l220 -272q7 -10 3 -19.5t-16 -9.5h-239q-23 0 -45 19l-312 268q-9 9 -4.5 21zM100 20v1252q0 20 19 20h852q20 0 20 -20v-262q0 -19 -20 -19h-504q-25 0 -25 -22v-142q0 -22 25 -22h414q20 0 20 -19v-264q0 -18 -20 -18h-414 q-25 0 -25 -23v-157q0 -23 25 -23h504q20 0 20 -18v-263q0 -20 -20 -20h-852q-19 0 -19 20z" />
<glyph unicode="&#xc9;" horiz-adv-x="1030" d="M100 20v1252q0 20 19 20h852q20 0 20 -20v-262q0 -19 -20 -19h-504q-25 0 -25 -22v-142q0 -22 25 -22h414q20 0 20 -19v-264q0 -18 -20 -18h-414q-25 0 -25 -23v-157q0 -23 25 -23h504q20 0 20 -18v-263q0 -20 -20 -20h-852q-19 0 -19 20zM377 1434.5q-4 9.5 4 19.5 l219 272q16 19 39 19h336q15 0 19 -12t-5 -21l-311 -268q-22 -19 -45 -19h-240q-12 0 -16 9.5z" />
<glyph unicode="&#xca;" horiz-adv-x="1030" d="M100 20v1252q0 20 19 20h852q20 0 20 -20v-262q0 -19 -20 -19h-504q-25 0 -25 -22v-142q0 -22 25 -22h414q20 0 20 -19v-264q0 -18 -20 -18h-414q-25 0 -25 -23v-157q0 -23 25 -23h504q20 0 20 -18v-263q0 -20 -20 -20h-852q-19 0 -19 20zM205 1420.5q-4 9.5 4 19.5 l240 313q13 19 38 19h111q26 0 39 -19l240 -313q7 -10 3 -19.5t-16 -9.5h-213q-25 0 -41 25l-45 75q-7 13 -22 13t-23 -13l-45 -75q-16 -25 -41 -25h-213q-12 0 -16 9.5z" />
<glyph unicode="&#xcb;" horiz-adv-x="1030" d="M100 20v1252q0 20 19 20h852q20 0 20 -20v-262q0 -19 -20 -19h-504q-25 0 -25 -22v-142q0 -22 25 -22h414q20 0 20 -19v-264q0 -18 -20 -18h-414q-25 0 -25 -23v-157q0 -23 25 -23h504q20 0 20 -18v-263q0 -20 -20 -20h-852q-19 0 -19 20zM197 1589q0 64 43.5 107 t105.5 43q61 0 104.5 -44t43.5 -106t-43 -103.5t-105 -41.5t-105.5 41.5t-43.5 103.5zM594 1589q0 63 42 106.5t105 43.5q61 0 105.5 -44.5t44.5 -105.5q0 -62 -44 -103.5t-106 -41.5t-104.5 42t-42.5 103z" />
<glyph unicode="&#xcc;" horiz-adv-x="542" d="M-177 1733q4 12 19 12h336q23 0 39 -19l219 -272q8 -10 4 -19.5t-16 -9.5h-240q-23 0 -45 19l-311 268q-9 9 -5 21zM100 20v1252q0 20 19 20h301q22 0 22 -20v-1252q0 -20 -22 -20h-301q-19 0 -19 20z" />
<glyph unicode="&#xcd;" horiz-adv-x="542" d="M100 20v1252q0 20 19 20h301q22 0 22 -20v-1252q0 -20 -22 -20h-301q-19 0 -19 20zM105 1434.5q-4 9.5 4 19.5l219 272q16 19 39 19h335q15 0 19.5 -12t-4.5 -21l-311 -268q-22 -19 -46 -19h-239q-12 0 -16 9.5z" />
<glyph unicode="&#xce;" horiz-adv-x="542" d="M-67 1420.5q-4 9.5 4 19.5l239 313q13 19 39 19h111q26 0 39 -19l239 -313q8 -10 4 -19.5t-16 -9.5h-213q-25 0 -41 25l-45 75q-7 13 -22 13t-23 -13l-45 -75q-16 -25 -41 -25h-213q-12 0 -16 9.5zM100 20v1252q0 20 19 20h301q22 0 22 -20v-1252q0 -20 -22 -20h-301 q-19 0 -19 20z" />
<glyph unicode="&#xcf;" horiz-adv-x="542" d="M-76 1589q0 64 44 107t106 43q61 0 104 -44t43 -106t-42.5 -103.5t-104.5 -41.5t-106 41.5t-44 103.5zM100 20v1252q0 20 19 20h301q22 0 22 -20v-1252q0 -20 -22 -20h-301q-19 0 -19 20zM322 1589q0 63 42 106.5t105 43.5q61 0 105 -44t44 -106t-43.5 -103.5 t-105.5 -41.5t-104.5 42t-42.5 103z" />
<glyph unicode="&#xd0;" horiz-adv-x="1200" d="M-29 506v280q0 19 19 19h84q26 0 26 24v443q0 20 19 20h571q202 0 321 -108.5t119 -296.5v-486q0 -185 -119 -293t-321 -108h-571q-19 0 -19 20v445q0 22 -26 22h-84q-19 0 -19 19zM442 324q0 -23 25 -23h223q42 0 72.5 25.5t30.5 58.5v520q0 32 -31.5 59t-71.5 27h-223 q-25 0 -25 -22v-135q0 -29 27 -29h137q21 0 21 -19v-280q0 -19 -21 -19h-137q-27 0 -27 -24v-139z" />
<glyph unicode="&#xd1;" horiz-adv-x="1177" d="M100 20v1252q0 20 19 20h260q18 0 27 -18l303 -578q13 -24 24 -48.5t16 -37.5l5 -12h6q-10 160 -10 342v332q0 20 18 20h289q20 0 20 -20v-1252q0 -20 -20 -20h-256q-12 0 -23 18l-305 566q-12 21 -22.5 44t-15.5 36l-5 12h-8q12 -162 12 -330v-326q0 -20 -20 -20h-295 q-19 0 -19 20zM221 1550q94 181 256 181q49 0 87 -16t64.5 -32t49.5 -16q58 0 92 51q14 25 33 8l133 -104q17 -13 8 -31q-93 -164 -268 -164q-42 0 -79.5 17.5t-68 35t-53.5 17.5q-54 0 -80 -47q-14 -25 -37 -10l-131 86q-14 11 -6 24z" />
<glyph unicode="&#xd2;" horiz-adv-x="1167" d="M70 358v576q0 173 123.5 279t320.5 106h143q197 0 319 -105.5t122 -279.5v-576q0 -173 -122 -279t-319 -106h-143q-200 0 -322 106t-122 279zM136.5 1733q4.5 12 19.5 12h336q22 0 38 -19l220 -272q7 -10 3 -19.5t-16 -9.5h-239q-23 0 -45 19l-312 268q-9 9 -4.5 21z M406 358q0 -39 27.5 -61.5t80.5 -22.5h143q47 0 74 23.5t27 60.5v576q0 37 -28.5 61.5t-72.5 24.5h-143q-43 0 -75.5 -26.5t-32.5 -59.5v-576z" />
<glyph unicode="&#xd3;" horiz-adv-x="1167" d="M70 358v576q0 173 123.5 279t320.5 106h143q197 0 319 -105.5t122 -279.5v-576q0 -173 -122 -279t-319 -106h-143q-200 0 -322 106t-122 279zM406 358q0 -39 27.5 -61.5t80.5 -22.5h143q47 0 74 23.5t27 60.5v576q0 37 -28.5 61.5t-72.5 24.5h-143q-43 0 -75.5 -26.5 t-32.5 -59.5v-576zM418 1434.5q-4 9.5 4 19.5l219 272q16 19 39 19h336q15 0 19 -12t-5 -21l-311 -268q-22 -19 -45 -19h-240q-12 0 -16 9.5z" />
<glyph unicode="&#xd4;" horiz-adv-x="1167" d="M70 358v576q0 173 123.5 279t320.5 106h143q197 0 319 -105.5t122 -279.5v-576q0 -173 -122 -279t-319 -106h-143q-200 0 -322 106t-122 279zM246 1420.5q-4 9.5 4 19.5l239 313q13 19 39 19h111q26 0 39 -19l240 -313q7 -10 3 -19.5t-16 -9.5h-213q-25 0 -41 25l-45 75 q-7 13 -22.5 13t-22.5 -13l-45 -75q-16 -25 -41 -25h-213q-12 0 -16 9.5zM406 358q0 -39 27.5 -61.5t80.5 -22.5h143q47 0 74 23.5t27 60.5v576q0 37 -28.5 61.5t-72.5 24.5h-143q-43 0 -75.5 -26.5t-32.5 -59.5v-576z" />
<glyph unicode="&#xd5;" horiz-adv-x="1167" d="M70 358v576q0 173 123.5 279t320.5 106h143q197 0 319 -105.5t122 -279.5v-576q0 -173 -122 -279t-319 -106h-143q-200 0 -322 106t-122 279zM221 1550q94 181 256 181q49 0 87 -16t64.5 -32t49.5 -16q58 0 92 51q14 25 33 8l133 -104q17 -13 8 -31q-93 -164 -268 -164 q-42 0 -79.5 17.5t-68 35t-53.5 17.5q-54 0 -80 -47q-14 -25 -37 -10l-131 86q-14 11 -6 24zM406 358q0 -39 27.5 -61.5t80.5 -22.5h143q47 0 74 23.5t27 60.5v576q0 37 -28.5 61.5t-72.5 24.5h-143q-43 0 -75.5 -26.5t-32.5 -59.5v-576z" />
<glyph unicode="&#xd6;" horiz-adv-x="1167" d="M70 358v576q0 173 123.5 279t320.5 106h143q197 0 319 -105.5t122 -279.5v-576q0 -173 -122 -279t-319 -106h-143q-200 0 -322 106t-122 279zM238 1589q0 64 43.5 107t105.5 43q61 0 104.5 -44t43.5 -106t-43 -103.5t-105 -41.5t-105.5 41.5t-43.5 103.5zM406 358 q0 -39 27.5 -61.5t80.5 -22.5h143q47 0 74 23.5t27 60.5v576q0 37 -28.5 61.5t-72.5 24.5h-143q-43 0 -75.5 -26.5t-32.5 -59.5v-576zM635 1589q0 63 42 106.5t105 43.5q62 0 106 -44.5t44 -105.5q0 -62 -44 -103.5t-106 -41.5t-104.5 42t-42.5 103z" />
<glyph unicode="&#xd7;" d="M106 231l252 252q18 19 4 33l-253 254q-13 11 0 29l157 157q14 14 29 -2l252 -254q18 -15 35 5l254 256q15 15 28 0l148 -148q11 -9 -2 -27l-256 -254q-19 -17 -2 -34l254 -254q12 -12 0 -27l-158 -158q-18 -13 -29 -2l-252 254q-17 17 -35 -2l-251 -252q-14 -14 -25 0 l-147 148q-16 13 -3 26z" />
<glyph unicode="&#xd8;" horiz-adv-x="1167" d="M70 358v576q0 173 123.5 279t320.5 106h143q197 0 319 -105.5t122 -279.5v-576q0 -173 -122 -279t-319 -106h-143q-200 0 -322 106t-122 279zM406 530q0 -9 7.5 -11t10.5 7l207 471q5 9 1 16t-14 7h-104q-43 0 -75.5 -26.5t-32.5 -59.5v-404zM536.5 281q4.5 -7 16.5 -7 h104q47 0 74 23.5t27 60.5v398q0 10 -7 11.5t-12 -7.5l-202 -461q-5 -11 -0.5 -18z" />
<glyph unicode="&#xd9;" horiz-adv-x="1206" d="M90 358v914q0 20 19 20h297q18 0 18 -20v-914q0 -84 108 -84h144q102 0 102 84v914q0 20 19 20h301q18 0 18 -20v-914q0 -173 -121.5 -279t-318.5 -106h-144q-199 0 -320.5 106t-121.5 279zM153 1733q4 12 19 12h336q23 0 39 -19l219 -272q8 -10 4 -19.5t-16 -9.5h-240 q-23 0 -45 19l-311 268q-9 9 -5 21z" />
<glyph unicode="&#xda;" horiz-adv-x="1206" d="M90 358v914q0 20 19 20h297q18 0 18 -20v-914q0 -84 108 -84h144q102 0 102 84v914q0 20 19 20h301q18 0 18 -20v-914q0 -173 -121.5 -279t-318.5 -106h-144q-199 0 -320.5 106t-121.5 279zM435 1434.5q-4 9.5 3 19.5l219 272q16 19 39 19h336q15 0 19.5 -12t-4.5 -21 l-312 -268q-22 -19 -45 -19h-239q-12 0 -16 9.5z" />
<glyph unicode="&#xdb;" horiz-adv-x="1206" d="M90 358v914q0 20 19 20h297q18 0 18 -20v-914q0 -84 108 -84h144q102 0 102 84v914q0 20 19 20h301q18 0 18 -20v-914q0 -173 -121.5 -279t-318.5 -106h-144q-199 0 -320.5 106t-121.5 279zM263 1420.5q-4 9.5 3 19.5l240 313q13 19 39 19h110q26 0 39 -19l240 -313 q8 -10 4 -19.5t-16 -9.5h-213q-25 0 -41 25l-45 75q-7 13 -22 13t-23 -13l-46 -75q-16 -25 -40 -25h-213q-12 0 -16 9.5z" />
<glyph unicode="&#xdc;" horiz-adv-x="1206" d="M90 358v914q0 20 19 20h297q18 0 18 -20v-914q0 -84 108 -84h144q102 0 102 84v914q0 20 19 20h301q18 0 18 -20v-914q0 -173 -121.5 -279t-318.5 -106h-144q-199 0 -320.5 106t-121.5 279zM254 1589q0 64 43.5 107t105.5 43q61 0 104.5 -44t43.5 -106t-43 -103.5 t-105 -41.5t-105.5 41.5t-43.5 103.5zM651 1589q0 63 42.5 106.5t105.5 43.5q61 0 105 -44t44 -106t-43.5 -103.5t-105.5 -41.5t-105 42t-43 103z" />
<glyph unicode="&#xdd;" horiz-adv-x="1003" d="M-75.5 1283q5.5 9 18.5 9h342q21 0 32 -20l164 -299q8 -13 19.5 -13t19.5 13l170 299q11 20 33 20h338q15 0 19.5 -9t-3.5 -21l-405 -682v-560q0 -20 -21 -20h-299q-18 0 -18 20v560l-408 682q-7 12 -1.5 21zM414 1434.5q-4 9.5 4 19.5l219 272q16 19 39 19h336 q15 0 19 -12t-5 -21l-311 -268q-22 -19 -45 -19h-240q-12 0 -16 9.5z" />
<glyph unicode="&#xde;" horiz-adv-x="1056" d="M100 20v1252q0 20 19 20h301q22 0 22 -20v-199q0 -26 27 -26h139q203 0 322 -97.5t119 -275.5v-82q0 -153 -122 -243.5t-319 -90.5h-141q-25 0 -25 -22v-216q0 -20 -20 -20h-303q-19 0 -19 20zM442 582q0 -23 25 -23h141q48 0 75.5 19t27.5 53v41q0 32 -27.5 52.5 t-75.5 20.5h-141q-25 0 -25 -22v-141z" />
<glyph unicode="&#xdf;" horiz-adv-x="1069" d="M25 606v240q0 20 18 20h57q27 0 27 21v26q0 81 29 152t84 126.5t143.5 87.5t200.5 32q203 0 315.5 -109.5t112.5 -296.5v-37q0 -64 -22.5 -118t-59.5 -86q-20 -20 0 -37q34 -30 58 -84t24 -115v-47q0 -72 -14 -130.5t-47.5 -110.5t-87 -87t-135.5 -55.5t-189 -20.5 q-25 0 -25 21v262q0 25 21 25q76 0 106.5 23t30.5 77v57q0 58 -30 82.5t-105 24.5q-27 0 -27 22v203q0 27 25 27q137 0 137 86v39q0 39 -27 62.5t-74 23.5q-51 0 -79.5 -23.5t-28.5 -62.5v-906q0 -20 -19 -20h-297q-20 0 -20 20v545q0 21 -29 21h-55q-18 0 -18 20z" />
<glyph unicode="&#xe0;" horiz-adv-x="997" d="M22 1454.5q4 11.5 19 11.5h336q27 0 39 -18l239 -313q8 -11 4 -20t-16 -9h-240q-24 0 -45 18l-331 310q-9 9 -5 20.5zM35 274v31q0 85 50.5 143.5t131 84.5t184.5 26h160q10 0 16.5 7t6.5 18v37q0 38 -31.5 62t-83.5 24q-109 0 -168 -111q-6 -12 -18.5 -13t-22.5 7 l-215 141q-19 14 0 43q50 87 129 139q122 80 295 80q216 0 334.5 -98t118.5 -285v-590q0 -20 -19 -20h-233q-8 0 -15.5 4.5t-7.5 11.5v50q0 9 -6.5 12t-13.5 -4q-33 -34 -86.5 -54t-114.5 -20h-64q-150 0 -238.5 70t-88.5 204zM342 305q0 -78 80 -78h67q39 0 67 32t28 97 q0 25 -33 25h-125q-84 0 -84 -76z" />
<glyph unicode="&#xe1;" horiz-adv-x="997" d="M35 274v31q0 85 50.5 143.5t131 84.5t184.5 26h160q10 0 16.5 7t6.5 18v37q0 38 -31.5 62t-83.5 24q-109 0 -168 -111q-6 -12 -18.5 -13t-22.5 7l-215 141q-19 14 0 43q50 87 129 139q122 80 295 80q216 0 334.5 -98t118.5 -285v-590q0 -20 -19 -20h-233q-8 0 -15.5 4.5 t-7.5 11.5v50q0 9 -6.5 12t-13.5 -4q-33 -34 -86.5 -54t-114.5 -20h-64q-150 0 -238.5 70t-88.5 204zM299 1115q-4 9 4 20l240 313q12 18 39 18h336q15 0 19 -11.5t-5 -20.5l-332 -310q-21 -18 -45 -18h-240q-12 0 -16 9zM342 305q0 -78 80 -78h67q39 0 67 32t28 97 q0 25 -33 25h-125q-84 0 -84 -76z" />
<glyph unicode="&#xe2;" horiz-adv-x="997" d="M35 274v31q0 85 50.5 143.5t131 84.5t184.5 26h160q10 0 16.5 7t6.5 18v37q0 38 -31.5 62t-83.5 24q-109 0 -168 -111q-6 -12 -18.5 -13t-22.5 7l-215 141q-19 14 0 43q50 87 129 139q122 80 295 80q216 0 334.5 -98t118.5 -285v-590q0 -20 -19 -20h-233q-8 0 -15.5 4.5 t-7.5 11.5v50q0 9 -6.5 12t-13.5 -4q-33 -34 -86.5 -54t-114.5 -20h-64q-150 0 -238.5 70t-88.5 204zM129.5 1095.5q-4.5 10.5 3.5 22.5l254 355q11 16 33 16h121q21 0 32 -16l254 -355q8 -12 3.5 -22.5t-17.5 -10.5h-227q-22 0 -31 19l-55 96q-8 14 -20 14t-19 -14l-55 -96 q-10 -19 -31 -19h-228q-13 0 -17.5 10.5zM342 305q0 -78 80 -78h67q39 0 67 32t28 97q0 25 -33 25h-125q-84 0 -84 -76z" />
<glyph unicode="&#xe3;" horiz-adv-x="997" d="M35 274v31q0 85 50.5 143.5t131 84.5t184.5 26h160q10 0 16.5 7t6.5 18v37q0 38 -31.5 62t-83.5 24q-109 0 -168 -111q-6 -12 -18.5 -13t-22.5 7l-215 141q-19 14 0 43q50 87 129 139q122 80 295 80q216 0 334.5 -98t118.5 -285v-590q0 -20 -19 -20h-233q-8 0 -15.5 4.5 t-7.5 11.5v50q0 9 -6.5 12t-13.5 -4q-33 -34 -86.5 -54t-114.5 -20h-64q-150 0 -238.5 70t-88.5 204zM96 1260q91 200 260 200q42 0 92 -23t91.5 -46t62.5 -23q16 0 29 6.5t24 22.5t16 25t15 30q12 25 31 10l145 -112q14 -11 4 -31q-114 -213 -264 -213q-46 0 -127 48 t-110 48q-47 0 -82 -72q-10 -21 -33 -6l-144 103q-20 13 -10 33zM342 305q0 -78 80 -78h67q39 0 67 32t28 97q0 25 -33 25h-125q-84 0 -84 -76z" />
<glyph unicode="&#xe4;" horiz-adv-x="997" d="M35 274v31q0 85 50.5 143.5t131 84.5t184.5 26h160q10 0 16.5 7t6.5 18v37q0 38 -31.5 62t-83.5 24q-109 0 -168 -111q-6 -12 -18.5 -13t-22.5 7l-215 141q-19 14 0 43q50 87 129 139q122 80 295 80q216 0 334.5 -98t118.5 -285v-590q0 -20 -19 -20h-233q-8 0 -15.5 4.5 t-7.5 11.5v50q0 9 -6.5 12t-13.5 -4q-33 -34 -86.5 -54t-114.5 -20h-64q-150 0 -238.5 70t-88.5 204zM98 1284q0 68 50.5 115t119.5 47q71 0 121.5 -47t50.5 -115q0 -66 -50.5 -112t-121.5 -46q-73 0 -121.5 44.5t-48.5 113.5zM342 305q0 -78 80 -78h67q39 0 67 32t28 97 q0 25 -33 25h-125q-84 0 -84 -76zM520 1284q0 68 51 115t121 47t120 -46.5t50 -115.5t-48.5 -113.5t-121.5 -44.5t-122.5 45t-49.5 113z" />
<glyph unicode="&#xe5;" horiz-adv-x="997" d="M35 274v31q0 85 50.5 143.5t131 84.5t184.5 26h160q10 0 16.5 7t6.5 18v37q0 38 -31.5 62t-83.5 24q-109 0 -168 -111q-6 -12 -18.5 -13t-22.5 7l-215 141q-19 14 0 43q50 87 129 139q122 80 295 80q216 0 334.5 -98t118.5 -285v-590q0 -20 -19 -20h-233q-8 0 -15.5 4.5 t-7.5 11.5v50q0 9 -6.5 12t-13.5 -4q-33 -34 -86.5 -54t-114.5 -20h-64q-150 0 -238.5 70t-88.5 204zM219 1315v59q0 103 72 166.5t190 63.5q120 0 191 -62.5t71 -167.5v-59q0 -106 -71 -168t-191 -62q-119 0 -190.5 63t-71.5 167zM342 305q0 -78 80 -78h67q39 0 67 32 t28 97q0 25 -33 25h-125q-84 0 -84 -76zM434 1315q0 -17 12.5 -28t34.5 -11q20 0 32.5 11t12.5 28v59q0 19 -12.5 31t-32.5 12q-21 0 -34 -12.5t-13 -30.5v-59z" />
<glyph unicode="&#xe6;" horiz-adv-x="1531" d="M35 248v57q0 85 50.5 143.5t131 84.5t184.5 26h160q10 0 16.5 7t6.5 18v37q0 38 -31.5 62t-83.5 24q-109 0 -168 -111q-6 -12 -18.5 -13t-22.5 7l-215 141q-19 14 0 43q47 80 121 133q125 86 303 86q161 0 270 -51q30 -15 58 -2q100 53 237 53q188 0 315.5 -110 t127.5 -277v-164q0 -20 -19 -20h-504q-28 0 -28 -25v-39q0 -43 30 -68.5t82 -25.5q101 0 158 107q6 11 18.5 12.5t22.5 -6.5l213 -141q20 -12 0 -43q-47 -83 -121 -136q-116 -84 -295 -84q-223 0 -338 115q-14 13 -28 12.5t-23 -12.5q-39 -50 -98 -82.5t-121 -32.5h-64 q-150 0 -238.5 70.5t-88.5 204.5zM342 289q0 -88 80 -88h57q40 0 72.5 42.5t32.5 112.5q0 25 -33 25h-125q-41 0 -62.5 -24.5t-21.5 -67.5zM926 608q0 -20 24 -20h199q14 0 21.5 7t7.5 17v29q0 42 -33 70t-92 28t-93 -28t-34 -74v-29z" />
<glyph unicode="&#xe7;" horiz-adv-x="937" d="M55 360v246q0 175 118.5 281t322.5 106q233 0 346 -149q44 -57 71 -135q11 -31 -10 -41l-225 -97q-25 -11 -37 17q-28 62 -59.5 93.5t-83.5 31.5q-50 0 -75.5 -23t-25.5 -63v-287q0 -40 25.5 -63t75.5 -23q52 0 83.5 31.5t59.5 93.5q12 27 37 16l225 -96q21 -10 10 -41 q-33 -90 -75 -143q-77 -96 -195 -125q-32 -7 -45 -37q-8 -20 4 -25q42 -20 67 -61.5t25 -91.5v-15q0 -108 -78 -176.5t-208 -68.5h-179q-20 0 -20 20v178q0 23 24 23h134q32 0 32 24q0 25 -32 25h-111q-12 0 -16.5 8t0.5 17l75 159q11 27 -18 37q-115 43 -178.5 135.5 t-63.5 218.5z" />
<glyph unicode="&#xe8;" horiz-adv-x="1003" d="M44 1454.5q4 11.5 19 11.5h336q27 0 39 -18l240 -313q8 -11 4 -20t-16 -9h-240q-24 0 -45 18l-332 310q-9 9 -5 20.5zM55 360v246q0 172 129.5 279.5t321.5 107.5q188 0 315 -110t127 -277v-164q0 -20 -18 -20h-504q-29 0 -29 -25v-39q0 -43 30.5 -68.5t82.5 -25.5 q101 0 158 107q6 11 18.5 12.5t22.5 -6.5l213 -141q20 -12 0 -43q-47 -79 -107 -125q-125 -95 -309 -95q-200 0 -325.5 107t-125.5 280zM397 608q0 -20 25 -20h199q28 0 28 24v29q0 42 -33 70t-92 28t-93 -28t-34 -74v-29z" />
<glyph unicode="&#xe9;" horiz-adv-x="1003" d="M55 360v246q0 172 129.5 279.5t321.5 107.5q188 0 315 -110t127 -277v-164q0 -20 -18 -20h-504q-29 0 -29 -25v-39q0 -43 30.5 -68.5t82.5 -25.5q101 0 158 107q6 11 18.5 12.5t22.5 -6.5l213 -141q20 -12 0 -43q-47 -79 -107 -125q-125 -95 -309 -95q-200 0 -325.5 107 t-125.5 280zM324 1115q-4 9 4 20l239 313q12 18 39 18h336q15 0 19 -11.5t-5 -20.5l-331 -310q-21 -18 -45 -18h-240q-12 0 -16 9zM397 608q0 -20 25 -20h199q28 0 28 24v29q0 42 -33 70t-92 28t-93 -28t-34 -74v-29z" />
<glyph unicode="&#xea;" horiz-adv-x="1003" d="M55 360v246q0 172 129.5 279.5t321.5 107.5q188 0 315 -110t127 -277v-164q0 -20 -18 -20h-504q-29 0 -29 -25v-39q0 -43 30.5 -68.5t82.5 -25.5q101 0 158 107q6 11 18.5 12.5t22.5 -6.5l213 -141q20 -12 0 -43q-47 -79 -107 -125q-125 -95 -309 -95q-200 0 -325.5 107 t-125.5 280zM154.5 1095.5q-4.5 10.5 3.5 22.5l254 355q11 16 32 16h121q22 0 33 -16l254 -355q8 -12 3.5 -22.5t-17.5 -10.5h-228q-20 0 -30 19l-56 96q-8 14 -20 14t-19 -14l-55 -96q-10 -19 -31 -19h-227q-13 0 -17.5 10.5zM397 608q0 -20 25 -20h199q28 0 28 24v29 q0 42 -33 70t-92 28t-93 -28t-34 -74v-29z" />
<glyph unicode="&#xeb;" horiz-adv-x="1003" d="M55 360v246q0 172 129.5 279.5t321.5 107.5q188 0 315 -110t127 -277v-164q0 -20 -18 -20h-504q-29 0 -29 -25v-39q0 -43 30.5 -68.5t82.5 -25.5q101 0 158 107q6 11 18.5 12.5t22.5 -6.5l213 -141q20 -12 0 -43q-47 -79 -107 -125q-125 -95 -309 -95q-200 0 -325.5 107 t-125.5 280zM121 1284q0 68 50.5 115t119.5 47q71 0 121.5 -47t50.5 -115q0 -66 -50.5 -112t-121.5 -46q-73 0 -121.5 44.5t-48.5 113.5zM397 608q0 -20 25 -20h199q28 0 28 24v29q0 42 -33 70t-92 28t-93 -28t-34 -74v-29zM543 1284q0 68 51 115t121 47t120 -46.5 t50 -115.5t-48.5 -113.5t-121.5 -44.5t-122.5 45t-49.5 113z" />
<glyph unicode="&#xec;" horiz-adv-x="514" d="M-205.5 1454.5q4.5 11.5 19.5 11.5h336q26 0 38 -18l240 -313q8 -11 4 -20t-16 -9h-240q-24 0 -45 18l-332 310q-9 9 -4.5 20.5zM88 20v928q0 19 21 19h299q6 0 12 -5t6 -14v-928q0 -20 -18 -20h-299q-21 0 -21 20z" />
<glyph unicode="&#xed;" horiz-adv-x="514" d="M72 1115q-4 9 4 20l239 313q12 18 39 18h336q15 0 19.5 -11.5t-4.5 -20.5l-332 -310q-21 -18 -45 -18h-240q-12 0 -16 9zM88 20v928q0 19 21 19h299q6 0 12 -5t6 -14v-928q0 -20 -18 -20h-299q-21 0 -21 20z" />
<glyph unicode="&#xee;" horiz-adv-x="514" d="M-97.5 1095.5q-4.5 10.5 3.5 22.5l254 355q11 16 33 16h120q22 0 33 -16l254 -355q8 -12 3.5 -22.5t-17.5 -10.5h-228q-20 0 -30 19l-56 96q-8 14 -19.5 14t-19.5 -14l-55 -96q-10 -19 -31 -19h-227q-13 0 -17.5 10.5zM88 20v928q0 19 21 19h299q6 0 12 -5t6 -14v-928 q0 -20 -18 -20h-299q-21 0 -21 20z" />
<glyph unicode="&#xef;" horiz-adv-x="514" d="M-129 1284q0 68 50.5 115t119.5 47q71 0 121.5 -47t50.5 -115q0 -66 -50.5 -112t-121.5 -46q-73 0 -121.5 44.5t-48.5 113.5zM88 20v928q0 19 21 19h299q6 0 12 -5t6 -14v-928q0 -20 -18 -20h-299q-21 0 -21 20zM293 1284q0 68 51 115t121 47t120 -46.5t50 -115.5 t-48.5 -113.5t-121.5 -44.5t-122.5 45t-49.5 113z" />
<glyph unicode="&#xf0;" horiz-adv-x="1003" d="M52 1282q7 10 20 10h379q15 0 32 -20l35 -39l162 59q8 3 18.5 -0.5t10.5 -11.5v-92q0 -20 -17 -27l-82 -31l269 -296q28 -31 48.5 -97.5t20.5 -130.5v-246q0 -174 -122.5 -280.5t-319.5 -106.5q-200 0 -325.5 107t-125.5 280v246q0 136 80 234t217 135l-45 43l-190 -70 q-8 -3 -18.5 1.5t-10.5 11.5v83q0 28 12 33l107 39l-152 146q-10 10 -3 20zM397 330q0 -38 29.5 -62t79.5 -24q44 0 72 24.5t28 61.5v307q0 37 -28 61.5t-72 24.5q-50 0 -79.5 -25t-29.5 -61v-307z" />
<glyph unicode="&#xf1;" horiz-adv-x="1044" d="M86 20v928q0 19 20 19h218q9 0 15.5 -6.5t6.5 -12.5v-49q0 -8 7.5 -9.5t13.5 3.5q86 74 223 74q182 0 280.5 -93.5t98.5 -269.5v-584q0 -20 -21 -20h-299q-18 0 -18 20v584q0 37 -27 59.5t-76 22.5q-50 0 -77 -23t-27 -59v-584q0 -20 -21 -20h-297q-20 0 -20 20z M147 1260q91 200 261 200q42 0 92 -23t91 -46t62 -23q16 0 29 6.5t24 22.5t16 25t15 30q12 25 31 10l145 -112q15 -12 5 -31q-114 -213 -265 -213q-46 0 -127 48t-110 48q-47 0 -82 -72q-10 -21 -33 -6l-143 103q-21 14 -11 33z" />
<glyph unicode="&#xf2;" horiz-adv-x="1003" d="M48.5 1454.5q4.5 11.5 19.5 11.5h335q27 0 39 -18l240 -313q8 -11 4 -20t-16 -9h-240q-24 0 -45 18l-332 310q-9 9 -4.5 20.5zM55 360v246q0 173 125.5 280t325.5 107q198 0 320 -105.5t122 -281.5v-246q0 -174 -122.5 -280.5t-319.5 -106.5q-200 0 -325.5 107 t-125.5 280zM397 330q0 -38 29.5 -62t79.5 -24q44 0 72 24.5t28 61.5v307q0 37 -28 61.5t-72 24.5q-50 0 -79.5 -25t-29.5 -61v-307z" />
<glyph unicode="&#xf3;" horiz-adv-x="1003" d="M55 360v246q0 173 125.5 280t325.5 107q198 0 320 -105.5t122 -281.5v-246q0 -174 -122.5 -280.5t-319.5 -106.5q-200 0 -325.5 107t-125.5 280zM326 1115q-4 9 4 20l239 313q12 18 39 18h336q15 0 19 -11.5t-5 -20.5l-331 -310q-21 -18 -45 -18h-240q-12 0 -16 9z M397 330q0 -38 29.5 -62t79.5 -24q44 0 72 24.5t28 61.5v307q0 37 -28 61.5t-72 24.5q-50 0 -79.5 -25t-29.5 -61v-307z" />
<glyph unicode="&#xf4;" horiz-adv-x="1003" d="M55 360v246q0 173 125.5 280t325.5 107q198 0 320 -105.5t122 -281.5v-246q0 -174 -122.5 -280.5t-319.5 -106.5q-200 0 -325.5 107t-125.5 280zM156.5 1095.5q-4.5 10.5 3.5 22.5l254 355q11 16 32 16h121q22 0 33 -16l254 -355q8 -12 3.5 -22.5t-17.5 -10.5h-228 q-20 0 -30 19l-56 96q-7 14 -19.5 14t-19.5 -14l-55 -96q-10 -19 -31 -19h-227q-13 0 -17.5 10.5zM397 330q0 -38 29.5 -62t79.5 -24q44 0 72 24.5t28 61.5v307q0 37 -28 61.5t-72 24.5q-50 0 -79.5 -25t-29.5 -61v-307z" />
<glyph unicode="&#xf5;" horiz-adv-x="1003" d="M55 360v246q0 173 125.5 280t325.5 107q198 0 320 -105.5t122 -281.5v-246q0 -174 -122.5 -280.5t-319.5 -106.5q-200 0 -325.5 107t-125.5 280zM125 1260q91 200 260 200q42 0 92 -23t91.5 -46t62.5 -23q16 0 29 6.5t24 22.5t16 25t15 30q12 24 30 10l146 -112 q14 -11 4 -31q-114 -213 -264 -213q-46 0 -127.5 48t-110.5 48q-47 0 -82 -72q-10 -20 -32 -6l-144 103q-20 13 -10 33zM397 330q0 -38 29.5 -62t79.5 -24q44 0 72 24.5t28 61.5v307q0 37 -28 61.5t-72 24.5q-50 0 -79.5 -25t-29.5 -61v-307z" />
<glyph unicode="&#xf6;" horiz-adv-x="1003" d="M55 360v246q0 173 125.5 280t325.5 107q198 0 320 -105.5t122 -281.5v-246q0 -174 -122.5 -280.5t-319.5 -106.5q-200 0 -325.5 107t-125.5 280zM127 1284q0 68 50.5 115t119.5 47q71 0 121.5 -47t50.5 -115q0 -66 -50.5 -112t-121.5 -46q-73 0 -121.5 44.5t-48.5 113.5z M397 330q0 -38 29.5 -62t79.5 -24q44 0 72 24.5t28 61.5v307q0 37 -28 61.5t-72 24.5q-50 0 -79.5 -25t-29.5 -61v-307zM549 1284q0 68 51 115t121 47t120 -46.5t50 -115.5t-48.5 -113.5t-121.5 -44.5t-122.5 45t-49.5 113z" />
<glyph unicode="&#xf7;" d="M66 453v206q0 21 18 21h948q21 0 21 -21v-206q0 -19 -21 -19h-948q-18 0 -18 19zM373 168q0 71 55 120.5t131 49.5q70 0 127 -51.5t57 -118.5h2q0 -68 -56 -118t-128 -50q-76 0 -132 48.5t-56 119.5zM373 946q0 71 55 120.5t131 49.5q70 0 128 -51.5t58 -118.5 q0 -68 -56 -118t-128 -50q-76 0 -132 48.5t-56 119.5z" />
<glyph unicode="&#xf8;" horiz-adv-x="1003" d="M55 360v246q0 173 125.5 280t325.5 107q198 0 320 -105.5t122 -281.5v-246q0 -174 -122.5 -280.5t-319.5 -106.5q-200 0 -325.5 107t-125.5 280zM397 481q0 -12 6.5 -14.5t12.5 6.5l131 217q13 24 -8 29q-20 4 -33 4q-50 0 -79.5 -25t-29.5 -61v-156zM455 285 q-17 -27 4 -33q19 -8 47 -8q44 0 72 24.5t28 61.5v164q0 14 -7 16t-15 -10z" />
<glyph unicode="&#xf9;" horiz-adv-x="1044" d="M58.5 1454.5q4.5 11.5 19.5 11.5h336q27 0 39 -18l239 -313q8 -11 4 -20t-16 -9h-240q-24 0 -45 18l-332 310q-9 9 -4.5 20.5zM76 362v584q0 21 18 21h299q21 0 21 -21v-584q0 -38 25.5 -59.5t74.5 -21.5q50 0 78.5 22.5t28.5 58.5v584q0 21 18 21h301q18 0 18 -21v-928 q0 -18 -18 -18h-219q-9 0 -17 6t-8 12v50q0 8 -6 9.5t-12 -3.5q-86 -74 -223 -74q-182 0 -280.5 93t-98.5 269z" />
<glyph unicode="&#xfa;" horiz-adv-x="1044" d="M76 362v584q0 21 18 21h299q21 0 21 -21v-584q0 -38 25.5 -59.5t74.5 -21.5q50 0 78.5 22.5t28.5 58.5v584q0 21 18 21h301q18 0 18 -21v-928q0 -18 -18 -18h-219q-9 0 -17 6t-8 12v50q0 8 -6 9.5t-12 -3.5q-86 -74 -223 -74q-182 0 -280.5 93t-98.5 269zM336 1115 q-4 9 4 20l240 313q12 18 38 18h336q15 0 19.5 -11.5t-4.5 -20.5l-332 -310q-21 -18 -45 -18h-240q-12 0 -16 9z" />
<glyph unicode="&#xfb;" horiz-adv-x="1044" d="M76 362v584q0 21 18 21h299q21 0 21 -21v-584q0 -38 25.5 -59.5t74.5 -21.5q50 0 78.5 22.5t28.5 58.5v584q0 21 18 21h301q18 0 18 -21v-928q0 -18 -18 -18h-219q-9 0 -17 6t-8 12v50q0 8 -6 9.5t-12 -3.5q-86 -74 -223 -74q-182 0 -280.5 93t-98.5 269zM166.5 1095.5 q-4.5 10.5 3.5 22.5l254 355q11 16 33 16h121q21 0 32 -16l254 -355q8 -12 3.5 -22.5t-17.5 -10.5h-227q-21 0 -31 19l-55 96q-8 14 -19.5 14t-19.5 -14l-56 -96q-10 -19 -30 -19h-228q-13 0 -17.5 10.5z" />
<glyph unicode="&#xfc;" horiz-adv-x="1044" d="M76 362v584q0 21 18 21h299q21 0 21 -21v-584q0 -38 25.5 -59.5t74.5 -21.5q50 0 78.5 22.5t28.5 58.5v584q0 21 18 21h301q18 0 18 -21v-928q0 -18 -18 -18h-219q-9 0 -17 6t-8 12v50q0 8 -6 9.5t-12 -3.5q-86 -74 -223 -74q-182 0 -280.5 93t-98.5 269zM135 1284 q0 68 50.5 115t119.5 47q71 0 121.5 -47t50.5 -115q0 -66 -50.5 -112t-121.5 -46q-73 0 -121.5 44.5t-48.5 113.5zM557 1284q0 68 51 115t121 47t120 -46.5t50 -115.5t-48.5 -113.5t-121.5 -44.5t-122.5 45t-49.5 113z" />
<glyph unicode="&#xfd;" horiz-adv-x="1044" d="M76 383v563q0 21 18 21h299q21 0 21 -21v-584q0 -38 25.5 -59.5t74.5 -21.5q50 0 78.5 23t28.5 58v584q0 21 18 21h301q18 0 18 -21v-1040q0 -184 -112.5 -285.5t-331.5 -101.5q-189 0 -315 110q-58 51 -97 117q-20 30 0 43l213 141q10 8 22.5 7t18.5 -13 q56 -106 158 -106q52 0 79.5 24t27.5 68v106q0 11 -7 15t-16 -2q-50 -29 -117 -29q-186 0 -295.5 103t-109.5 280zM336 1115q-4 9 4 20l240 313q12 18 38 18h336q15 0 19.5 -11.5t-4.5 -20.5l-332 -310q-21 -18 -45 -18h-240q-12 0 -16 9z" />
<glyph unicode="&#xfe;" horiz-adv-x="1028" d="M86 -305v1577q0 20 20 20h250q21 0 21 -16v-358q0 -10 7.5 -12.5t14.5 3.5q71 58 172 58q203 0 302.5 -93.5t99.5 -291.5v-199q0 -176 -112.5 -279.5t-299.5 -103.5q-67 0 -117 29q-9 6 -14.5 2t-5.5 -15v-321q0 -11 -7 -16t-14 -5h-297q-20 0 -20 21zM424 342 q0 -38 27 -60t77 -22q49 0 76 22.5t27 59.5v281q0 39 -27 61.5t-76 22.5q-46 0 -75 -23t-29 -61v-281z" />
<glyph unicode="&#xff;" horiz-adv-x="1044" d="M76 383v563q0 21 18 21h299q21 0 21 -21v-584q0 -38 25.5 -59.5t74.5 -21.5q50 0 78.5 23t28.5 58v584q0 21 18 21h301q18 0 18 -21v-1040q0 -184 -112.5 -285.5t-331.5 -101.5q-184 0 -305 102q-64 52 -107 125q-20 30 0 43l213 141q10 8 22.5 7t18.5 -13 q56 -106 158 -106q52 0 79.5 24t27.5 68v106q0 11 -7 15t-16 -2q-50 -29 -117 -29q-186 0 -295.5 103t-109.5 280zM135 1284q0 68 50.5 115t119.5 47q71 0 121.5 -47t50.5 -115q0 -66 -50.5 -112t-121.5 -46q-73 0 -121.5 44.5t-48.5 113.5zM557 1284q0 68 51 115t121 47 t120 -46.5t50 -115.5t-48.5 -113.5t-121.5 -44.5t-122.5 45t-49.5 113z" />
<glyph unicode="&#x152;" horiz-adv-x="1687" d="M70 358v576q0 173 123.5 279t320.5 106h143q90 0 179 -27h792q21 0 21 -20v-262q0 -19 -21 -19h-504q-24 0 -24 -22v-142q0 -22 24 -22h414q21 0 21 -19v-264q0 -18 -21 -18h-414q-24 0 -24 -23v-157q0 -23 24 -23h504q21 0 21 -18v-263q0 -20 -21 -20h-794 q-89 -27 -177 -27h-143q-200 0 -322 106t-122 279zM406 358q0 -39 27.5 -61.5t80.5 -22.5h143q47 0 74 23.5t27 60.5v576q0 37 -28.5 61.5t-72.5 24.5h-143q-43 0 -75.5 -26.5t-32.5 -59.5v-576z" />
<glyph unicode="&#x153;" horiz-adv-x="1554" d="M55 360v246q0 173 125.5 280t325.5 107q144 0 248 -55q25 -14 51 0q107 55 252 55q188 0 315 -110t127 -277v-164q0 -20 -18 -20h-504q-29 0 -29 -25v-39q0 -43 30.5 -68.5t82.5 -25.5q101 0 158 107q6 11 18.5 12.5t22.5 -6.5l213 -141q20 -12 0 -43q-44 -78 -111 -127 q-123 -93 -305 -93q-144 0 -252 54q-31 15 -60 0q-105 -54 -239 -54q-200 0 -325.5 107t-125.5 280zM397 330q0 -38 29.5 -62t79.5 -24q44 0 72 24.5t28 61.5v307q0 37 -28 61.5t-72 24.5q-50 0 -79.5 -25t-29.5 -61v-307zM948 608q0 -20 25 -20h198q14 0 21.5 7t7.5 17v29 q0 42 -33 70t-92 28t-93 -28t-34 -74v-29z" />
<glyph unicode="&#x178;" horiz-adv-x="1003" d="M-75.5 1283q5.5 9 18.5 9h342q21 0 32 -20l164 -299q8 -13 19.5 -13t19.5 13l170 299q11 20 33 20h338q15 0 19.5 -9t-3.5 -21l-405 -682v-560q0 -20 -21 -20h-299q-18 0 -18 20v560l-408 682q-7 12 -1.5 21zM156 1589q0 64 43.5 107t105.5 43q61 0 104.5 -44t43.5 -106 t-43 -103.5t-105 -41.5t-105.5 41.5t-43.5 103.5zM553 1589q0 63 42 106.5t105 43.5q62 0 106 -44.5t44 -105.5q0 -62 -44 -103.5t-106 -41.5t-104.5 42t-42.5 103z" />
<glyph unicode="&#x2c6;" horiz-adv-x="1107" d="M172.5 1095.5q-4.5 10.5 3.5 22.5l254 355q11 16 33 16h121q21 0 32 -16l254 -355q8 -12 3.5 -22.5t-17.5 -10.5h-227q-21 0 -31 19l-55 96q-7 14 -19 14t-20 -14l-55 -96q-9 -19 -31 -19h-228q-13 0 -17.5 10.5z" />
<glyph unicode="&#x2dc;" horiz-adv-x="1107" d="M139 1260q28 64 76 118q79 82 184 82q42 0 92 -23t91.5 -46t62.5 -23q16 0 29 6.5t24 22.5t16 25t15 30q12 25 31 10l145 -112q14 -11 4 -31q-47 -86 -88 -127q-81 -86 -176 -86q-46 0 -127 48t-110 48q-47 0 -82 -72q-10 -21 -33 -6l-143 103q-21 14 -11 33z" />
<glyph unicode="&#x2000;" horiz-adv-x="886" />
<glyph unicode="&#x2001;" horiz-adv-x="1772" />
<glyph unicode="&#x2002;" horiz-adv-x="886" />
<glyph unicode="&#x2003;" horiz-adv-x="1772" />
<glyph unicode="&#x2004;" horiz-adv-x="590" />
<glyph unicode="&#x2005;" horiz-adv-x="443" />
<glyph unicode="&#x2006;" horiz-adv-x="295" />
<glyph unicode="&#x2007;" horiz-adv-x="295" />
<glyph unicode="&#x2008;" horiz-adv-x="221" />
<glyph unicode="&#x2009;" horiz-adv-x="354" />
<glyph unicode="&#x200a;" horiz-adv-x="98" />
<glyph unicode="&#x2010;" horiz-adv-x="645" d="M61 344v279q0 20 19 20h483q21 0 21 -20v-279q0 -18 -21 -18h-483q-19 0 -19 18z" />
<glyph unicode="&#x2011;" horiz-adv-x="645" d="M61 344v279q0 20 19 20h483q21 0 21 -20v-279q0 -18 -21 -18h-483q-19 0 -19 18z" />
<glyph unicode="&#x2012;" horiz-adv-x="645" d="M61 344v279q0 20 19 20h483q21 0 21 -20v-279q0 -18 -21 -18h-483q-19 0 -19 18z" />
<glyph unicode="&#x2013;" horiz-adv-x="1212" d="M61 406v208q0 19 19 19h1053q18 0 18 -19v-208q0 -21 -18 -21h-1053q-19 0 -19 21z" />
<glyph unicode="&#x2014;" horiz-adv-x="1755" d="M61 406v208q0 19 19 19h1593q21 0 21 -19v-208q0 -10 -6.5 -15.5t-14.5 -5.5h-1593q-19 0 -19 21z" />
<glyph unicode="&#x2018;" horiz-adv-x="448" d="M55 829v175q0 158 72 245q57 71 178 125q25 12 35 -8l74 -137q12 -24 -8 -31q-37 -10 -55.5 -29.5t-18.5 -42.5q0 -18 20 -18h19q18 0 18 -18v-261q0 -18 -18 -18h-295q-21 0 -21 18z" />
<glyph unicode="&#x2019;" horiz-adv-x="448" d="M35 864q-12 24 8 31q37 10 55.5 29.5t18.5 42.5q0 18 -21 18h-18q-19 0 -19 19v260q0 18 19 18h295q20 0 20 -18v-174q0 -162 -78 -252q-58 -67 -172 -119q-24 -12 -34 8z" />
<glyph unicode="&#x201a;" horiz-adv-x="448" d="M35 -68q-12 24 8 31q37 10 55.5 29.5t18.5 42.5q0 18 -21 18h-18q-19 0 -19 19v260q0 18 19 18h295q20 0 20 -18v-174q0 -152 -67 -240q-58 -74 -183 -131q-24 -12 -34 8z" />
<glyph unicode="&#x201c;" horiz-adv-x="856" d="M55 829v175q0 167 86 262q58 61 164 108q25 12 35 -8l74 -137q12 -24 -8 -31q-37 -10 -55.5 -29.5t-18.5 -42.5q0 -18 20 -18h19q18 0 18 -18v-261q0 -18 -18 -18h-295q-21 0 -21 18zM465 829v175q0 180 92 272q45 45 158 98q25 12 35 -8l73 -137q12 -24 -8 -31 q-37 -10 -55.5 -29.5t-18.5 -42.5q0 -18 21 -18h18q19 0 19 -18v-261q0 -18 -19 -18h-295q-20 0 -20 18z" />
<glyph unicode="&#x201d;" horiz-adv-x="856" d="M35 864q-12 24 8 31q37 10 55.5 29.5t18.5 42.5q0 18 -21 18h-18q-19 0 -19 19v260q0 18 19 18h295q20 0 20 -18v-174q0 -183 -102 -279q-46 -44 -148 -92q-24 -12 -34 8zM442 864q-12 24 9 31q36 10 54.5 29.5t18.5 42.5q0 18 -20 18h-19q-18 0 -18 19v260q0 18 18 18 h295q21 0 21 -18v-174q0 -183 -99 -275q-54 -51 -151 -96q-25 -12 -35 8z" />
<glyph unicode="&#x201e;" horiz-adv-x="856" d="M35 -68q-12 24 8 31q37 10 55.5 29.5t18.5 42.5q0 18 -21 18h-18q-19 0 -19 19v260q0 18 19 18h295q20 0 20 -18v-174q0 -152 -67 -240q-58 -74 -183 -131q-24 -12 -34 8zM442 -68q-12 24 9 31q36 10 54.5 29.5t18.5 42.5q0 18 -20 18h-19q-18 0 -18 19v260q0 18 18 18 h295q21 0 21 -18v-174q0 -164 -82 -258q-56 -62 -168 -113q-25 -12 -35 8z" />
<glyph unicode="&#x2022;" horiz-adv-x="1024" d="M125 625v39q0 147 106 238t277 91h8q170 0 276.5 -91.5t106.5 -237.5v-39q0 -149 -105.5 -240.5t-275.5 -91.5h-8q-171 0 -278 92t-107 240z" />
<glyph unicode="&#x2026;" horiz-adv-x="2048" d="M236 160q0 70 55.5 120t130.5 50q70 0 127 -52.5t57 -117.5q0 -67 -57 -119.5t-127 -52.5q-75 0 -130.5 51.5t-55.5 120.5zM840 160q0 70 55.5 120t130.5 50q70 0 127 -52.5t57 -117.5q0 -67 -57 -119.5t-127 -52.5q-75 0 -130.5 51.5t-55.5 120.5zM1444 160 q0 70 55.5 120t130.5 50q70 0 127.5 -52.5t57.5 -117.5q0 -67 -57.5 -119.5t-127.5 -52.5q-75 0 -130.5 51.5t-55.5 120.5z" />
<glyph unicode="&#x202f;" horiz-adv-x="354" />
<glyph unicode="&#x2039;" horiz-adv-x="784" d="M80 508v147q0 24 18 35l537 344q11 8 20 2.5t9 -18.5v-258q0 -20 -19 -33l-215 -129q-12 -8 -11.5 -17.5t11.5 -15.5l215 -129q19 -13 19 -33v-258q0 -13 -9 -18.5t-20 2.5l-537 344q-18 11 -18 35z" />
<glyph unicode="&#x203a;" horiz-adv-x="784" d="M121 145v258q0 21 18 33l215 129q11 6 11.5 15.5t-11.5 17.5l-215 129q-18 12 -18 33v258q0 13 9.5 18.5t19.5 -2.5l536 -344q19 -11 19 -35v-147q0 -24 -19 -35l-536 -344q-10 -8 -19.5 -2.5t-9.5 18.5z" />
<glyph unicode="&#x205f;" horiz-adv-x="443" />
<glyph unicode="&#x20ac;" d="M-2 399v191q0 18 18 18h97q22 0 22 21v37q0 20 -22 20h-97q-18 0 -18 19v186q0 20 18 20h99q20 0 20 23q0 175 120 280t325 105h59q113 0 194 -33t144 -106q40 -45 90 -136q14 -29 -4 -38l-254 -117q-23 -12 -39 16q-64 115 -149 115h-41q-52 0 -80.5 -23.5t-28.5 -62.5 q0 -23 25 -23h200q17 0 17 -20v-186q0 -19 -17 -19h-200q-25 0 -25 -18v-39q0 -21 25 -21h200q17 0 17 -18v-191q0 -18 -17 -18h-204q-21 0 -21 -23q0 -39 28.5 -62.5t80.5 -23.5h41q85 0 149 115q16 28 39 16l254 -116q19 -9 4 -39q-53 -100 -111 -158q-117 -117 -317 -117 h-59q-205 0 -325 105t-120 280q0 23 -22 23h-97q-18 0 -18 18z" />
<glyph unicode="&#x2122;" horiz-adv-x="919" d="M57 1079v23q0 20 19 20h243q21 0 21 -20v-23q0 -18 -21 -18h-61q-27 0 -27 -23v-280q0 -21 -18 -21h-29q-20 0 -20 21v280q0 23 -25 23h-63q-19 0 -19 18zM434 758v344q0 20 19 20h24q12 0 19 -10l108 -166q10 -17 24 -17t25 17l107 166q5 10 20 10h23q20 0 20 -20v-344 q0 -21 -20 -21h-25q-20 0 -20 21v147q0 22 -19.5 25.5t-31.5 -15.5l-56 -84q-9 -13 -21 -13t-22 13l-61 84q-13 20 -31 16t-18 -26v-147q0 -21 -19 -21h-26q-19 0 -19 21z" />
<glyph unicode="&#x25fc;" horiz-adv-x="962" d="M0 0v963h963v-963h-963z" />
</font>
</defs>
</svg>
